/* XPM */
static char *_68ea8bf47b342dfc31489b91fb1f785awlTXqvD3twt8jNY[] = {
/* columns rows colors chars-per-pixel */
"64 64 256 2 ",
"   c #053903",
".  c #0B5B06",
"X  c #12540C",
"o  c #096705",
"O  c #16690B",
"+  c #0E7704",
"@  c #167807",
"#  c #1B740C",
"$  c #157B0A",
"%  c #1C7D0B",
"&  c #1C6A13",
"*  c #1B7A11",
"=  c #22750D",
"-  c #267C09",
";  c #237D0C",
":  c #276917",
">  c #247413",
",  c #2C7010",
"<  c #247C13",
"1  c #2B7D14",
"2  c #2A731A",
"3  c #237B1A",
"4  c #2B7C1B",
"5  c #36791A",
"6  c #337C1B",
"7  c #2F7625",
"8  c #367926",
"9  c #437B17",
"0  c #41782B",
"q  c #0F8306",
"w  c #198608",
"e  c #1C830C",
"r  c #1D8B0A",
"t  c #1D9309",
"y  c #1E8612",
"u  c #248A06",
"i  c #23840C",
"p  c #2B840D",
"a  c #248B0C",
"s  c #2B8B0C",
"d  c #338D0E",
"f  c #38880C",
"g  c #289807",
"h  c #24930A",
"j  c #2B930D",
"k  c #2D9B0C",
"l  c #339806",
"z  c #32940C",
"x  c #3D950D",
"c  c #349C0D",
"v  c #3B9C0D",
"b  c #248413",
"n  c #2B8313",
"m  c #258B12",
"M  c #2C8B13",
"N  c #248619",
"B  c #2B831B",
"V  c #2C8B1A",
"C  c #388716",
"Z  c #338C14",
"A  c #33841B",
"S  c #338C1C",
"D  c #3B8C1D",
"F  c #2C9413",
"G  c #299714",
"H  c #2D921A",
"J  c #339314",
"K  c #3B9314",
"L  c #349B13",
"P  c #3B9C14",
"I  c #34931B",
"U  c #3B941C",
"Y  c #349B1B",
"T  c #3C9B1B",
"R  c #2EA20D",
"E  c #34A30C",
"W  c #3BA30D",
"Q  c #38A809",
"!  c #2FA014",
"~  c #36A517",
"^  c #3CA214",
"/  c #3DAA13",
"(  c #3DA21B",
")  c #2C8621",
"_  c #358522",
"`  c #348B23",
"'  c #3B8B22",
"]  c #3B8928",
"[  c #349322",
"{  c #3B9423",
"}  c #359B22",
"|  c #3C9B23",
" . c #35912C",
".. c #3C942B",
"X. c #3D9B2A",
"o. c #3D9431",
"O. c #3DA222",
"+. c #3EA229",
"@. c #3FA134",
"#. c #428D17",
"$. c #439D14",
"%. c #469819",
"&. c #429D1B",
"*. c #549B19",
"=. c #45A80D",
"-. c #52AC0B",
";. c #49B30C",
":. c #56B80D",
">. c #43A414",
",. c #4AA415",
"<. c #44AB14",
"1. c #4CAC14",
"2. c #43A41B",
"3. c #4AA41C",
"4. c #45AB1C",
"5. c #4BAB1C",
"6. c #56AB19",
"7. c #53AD1C",
"8. c #47B516",
"9. c #4BB315",
"0. c #4CB21B",
"q. c #53B314",
"w. c #52B41C",
"e. c #5BB619",
"r. c #53B91B",
"t. c #5CBB1C",
"y. c #62AD18",
"u. c #62BA19",
"i. c #458727",
"p. c #438E24",
"a. c #438D2C",
"s. c #439424",
"d. c #4B9522",
"f. c #439C23",
"g. c #4A9D25",
"h. c #43942B",
"j. c #4B942B",
"k. c #439C2B",
"l. c #4B9D2C",
"z. c #559A28",
"x. c #468A34",
"c. c #449434",
"v. c #459C33",
"b. c #4B9C33",
"n. c #4C9738",
"m. c #539D33",
"M. c #569A3A",
"N. c #649B3D",
"B. c #43A323",
"V. c #4BA424",
"C. c #45AA22",
"Z. c #4CAB24",
"A. c #44A22A",
"S. c #4CA42B",
"D. c #47A92F",
"F. c #4CAB2B",
"G. c #52A524",
"H. c #52AD24",
"J. c #59AC24",
"K. c #52A42D",
"L. c #5BA62B",
"P. c #53AC2C",
"I. c #5AAC2D",
"U. c #4DB123",
"Y. c #4CB229",
"T. c #53B324",
"R. c #5AB424",
"E. c #55BA26",
"W. c #5BBB24",
"Q. c #54B32B",
"!. c #5BB42C",
"~. c #5CBA2B",
"^. c #4CA333",
"/. c #4AA736",
"(. c #4EAA33",
"). c #53A533",
"_. c #53AC33",
"`. c #5AAC33",
"'. c #54A33B",
"]. c #5BA539",
"[. c #54AB3B",
"{. c #5CAD3B",
"}. c #4DB233",
"|. c #55B333",
" X c #5CB434",
".X c #5CBA32",
"XX c #5CB43B",
"oX c #5AB938",
"OX c #66AF29",
"+X c #64BB25",
"@X c #66B62B",
"#X c #63BC2C",
"$X c #63AC38",
"%X c #63B434",
"&X c #63BC34",
"*X c #6ABC34",
"=X c #63B43B",
"-X c #6AB538",
";X c #64BB3B",
":X c #6BBC3C",
">X c #74B83B",
",X c #5CC31C",
"<X c #65C31B",
"1X c #5DC22A",
"2X c #69C525",
"3X c #63C22B",
"4X c #6BC32C",
"5X c #76C72A",
"6X c #7BD329",
"7X c #65C334",
"8X c #6CC333",
"9X c #69C539",
"0X c #6CC33C",
"qX c #76C937",
"wX c #72C43B",
"eX c #7DD23D",
"rX c #4F9E41",
"tX c #559944",
"yX c #55A843",
"uX c #5DAC43",
"iX c #5CB343",
"pX c #62AD43",
"aX c #63AC4A",
"sX c #63B444",
"dX c #63BC43",
"fX c #6ABC44",
"gX c #67B74A",
"hX c #6BBC4A",
"jX c #75BC47",
"kX c #65A954",
"lX c #6BBB53",
"zX c #75BD56",
"xX c #78B065",
"cX c #6BC244",
"vX c #68C248",
"bX c #73C343",
"nX c #79C846",
"mX c #73C34C",
"MX c #7CCA4C",
"NX c #7CD14A",
"BX c #71C752",
"VX c #75C453",
"CX c #78C558",
"ZX c #7CC762",
"AX c #81CC38",
"SX c #86D734",
"DX c #83CA49",
"FX c #92CB4B",
"GX c #85D34C",
"HX c #83CA58",
"JX c #87D454",
"KX c #85CB64",
"LX c #8BD565",
"PX c #97DA6A",
"IX c #95DC7B",
"UX c #9DE16B",
/* pixels */
"R G /.lXT P 4.} E F [.[ 0.4.( < v J gX4XL C.# > ( vXQ ;.P }.4.7XcX~.r.LXCX3.JX;XnXR.| Q.m.R.J c E.|.LXnXPXeX3XI HXvX1X|.b.( i.M ",
"2 Y V +.( # h.fX| U !.A./ Y.v.J c w.!.>.I B [ Z.0..XG D.A.m H F.<.,X2XJXJXnX-XMX-XwXfXJ.!.H.K.=XcXbX).JX@X8X8XeXLXMX&XH.#Xj.aXL ",
"T Y w V ).=.x V.a.A.<.4.P ~.T., < f.f.j 2._.|.}.Y.gXNXA.p j & 2.E <.W e.DXpX+X8XJX8XJXAXqX X$Xl.ZXMX5XDXqX!.qX~.HXAXqX:X%X{.m . ",
"Z I M y | f.c V.uX: I > ^ B.4.P.J | F U.! 4.b Z ( s.~.T.5.1.[.NX|.R.G.wXjX@XwXVXzXVXwX+X>X*XjX$XGXNX2XcXeX8XP.*XqX7.oX=XnXhX-XM.",
"% s z b % m ; | U %.g.f.Z.,.I |.U iXB.D Z.#.d.!.>.J ~ !.lXT.m B.dXZ.=X&X6.-X].%X$X3.z.F.*XR.qXDXGXPXuX!.:.AXMX!.%XVX#X:X*XCXqXd.",
"R T.T.Y s p i [ 3.D L U `.y.Z | sX|.R.H.sX$X-XP.j [ D.D.^.oXT O.V.P.v.iXI.$X>XnXqX-XN.+X&XvX#X<X&X4XwX~.( nX2XO.V.dXR.OXw.V.*XsX",
"j P B.M j z g.^.S _ h V B.$.C.J B.T.( 7.Q.XX2.~ .X|.wXE.gX4X3.F.D.>.;XV.,.nX!.5X5XnXLXW.9XvXY.Z.mX<XW.&X(.D.oXM I oX3.3.j `.KX=X",
", p U | g n #.2.< ;X1.M i - / L S 2.~ m ^.bX0.T.oXw.=.R oX~.XXE.] 8XT.X.K 4.<.j f.+XnX:XdXHX4XW.GXt.Z.e.fXhX;Xj Z R.5.6.8 jXHXHX",
"6.#.= xXgXc A.b I K.l.^ T iX~.,.2.MX).S {.pX~.sX;XE.U.B.&.B.| P qX2Xw.XX| X.F.d.oXW.R.R.oXUXNXZ.oX1.C.B.eX4XQ.T.3.[.0X1.#X@X*X@X",
"x 6.#.MXl.+ H d.sX XZ.m j GX|.H +.v.Q.%Xw.7XK.H.r.gX~.q.H.~.0.%.=.N iXP 8.iX8X=.j.T.'. XqX2X/ P T..X1.` S.2.mXUX6XbXcX0.j T.5XDX",
". $.C.I J T.4.!.s.P D c.vX3X&X~.=X{.V.!.v Q 7.( F p { MX,.=Xa.$.k  .[.Q.Q.mXQ.^ V.V.].;XnX3X_.7.<.7XvXQ.V.2.;XnX<XNXvXg %XF.<XJX",
"2 b Y U U P < ^.f.B.S ].:X~.:.z B X.Y.2.g.w.P O K.wXiXBXk.` | .X^ vX[.cXP.V.^ M { e.*X X( F.0.vX5.C.9X`.T Y > d L U.3X!.uX%.%.A ",
"L t I V.c > ; % C.S.l.f.P ( T.C A A.F.K E.R.O.o.I.).F.} /.iXgX;XJ yX^.k.U dXY (.gXP.H.#XF.r @.BXXXc.1.I &XBX!.[.ZX`.j I L '.| zX",
"!.U >.&.&.Z.k s s 4.I sXe > b P R.E.!.B.r.j Z.fXF j 2.F D.lXq.;.~ (.V ].4.s.c.| / !.q.R.vXF.vX7XXXbX|.4.~.7X7X.XCX^.,.<.X.%X#X*X",
"iX| K.W.i n % e < # o V k.' XX/ M ( t m i # < C.vXP j T m v.&.<.9X1.h.K s.l.uXP U.(.f.+X/.E .X8.L p S.XX4.5.3.k.| B.P ^ sXZXP.@X",
">._.K b 3 V m v.n 1 S > * c J k H Q.7X).2 C.' f.;X;X~.r.<.] V.B.[ k.^.| M W.q.|._.).v.V.dX/.( B.5..XZX|.V.U.f.@XZ.2XI.B.1XgXL T.",
"O u @ # F.% V D.1 p.K p D ' 2 &.[.| 2.=.+XJ P <.,XJ.nXMX.Xk.m Y.2.Z 4.F.>.u J.xX=X_./.O dXCXlXCX5.3X0Xr.P.D.0.6XnXXXZXCX~.=X^.| ",
"6 : =.K z   O F ;XK.:.P.O.B.~.4.C.Y ).7.v 2.H.1.B.8X%X&X|.P e I !..X XhX;XiX:XKX~.|..Xc F.} 4.#X( z ^ !.bX|.[ l t.MXIXzX( ~ Z b ",
"Z.I.I ; % % j h.g.T v z XXF.T l z >.=XmXr.1.<X+XzXqXt.Z.Y.<.4.Z._.$.|.I.nXnXH.w.w.9X` iXm dXk.$.C.U Z T V ' m b Q eXPXHXrX[ c 1.",
"i.S.3.).{.V.i.7 S.| V ^ s M Z e j =.&X*X#X=XJ.V.%X<XP 3.4X9X5.T.<X8Xd.J ).P.;X1.P.D.H.vXiXNXk.h }.lXS.V Z.).%.p.W L .XXXdXF.^ T.",
". - ( T 9.# & yXXXY.F.D ).|.C.A g.,.2.r.R.| >.A.{.*XfX|.w.>.> <.4./ f :XCX).X.( .X(.dXP.cX.XL >.V.VXpX@XP.eXDXjXa.F.qXI.K h.b P.",
"# & B m F g.T O.v.XXS V } E p.C T.T #.m.wX.XP.T.2.d &X4.1 ].{.'.I CX0.Z.O.}.r.r.(.{.oXO.~.nX0X^.>.~.`.S.=X!.&X{.zX`.7XqXjXcX!.^.",
"h M 6 I } P.v M ` (.` ..B.P |.).L s _ z.U.;XC.=X;XdX!.+XjX%X4 tXU gX4.$ N L E B.[ s./ ,X4X~ F.% W U.d.Z.#X~.S.hXLXR.Z.1X}.dXfXP ",
"+ X = % A.V o A 5 { # B P T.1XO.1 J _.A I J.nXVXP 3.;XhXP.<.l.;X( 5.O.o y .X|.V A.[.E.-.mX} i ~ t.q.,XW.f.=.Z.P.nX*XCX;X;XHXbX|.",
"V _ c I 3 ..m /.o.) B.2 y U.a ^ A 2.M.v.S.2.^ l.%X&.|.T.9.^ <.E.=XyXoX.XZ.4./ 4.C..X` 1 =XE.k.B.Z.;.U.j S.].V.+X=X8XVXHXH.7.3.xX",
"2.e w m : s.e e Y N D ] h P 1 P |...S.%.aXlXD T U M (.Y L Y.F.P.3.k.T >.Z.V . P | ( S.J Y.~ ! 8.T.oXyX|.).e.T ).=XNXG.%XbXfXQ. X",
"b h $ b > 4 V H > |.b.Y r T.S b B.L oXW.K.gXaXf.A '.iX} h.I T 4.P s e F m F.b [ yXB.|.[ m } O.t Q Z.n.vX/.e d.i 4.9.cXzXmX|.oXH.",
"s $ ~ Z.K m Y a n.P.h.b * b Q.Z.v a $ ~ L ..dX^.| CXh.dX[.mXXX..T h.'.T { } cXiX& o.|.!.#XT.}.U.t G V f.^.XXT 4._.R.*XcXcX_.| V.",
"c i <.S 1 A 3.I | G p S.fXb.7XV Z.A 2.( k.zXD.gXXXcXB.XXF E.yX* Z n | < X.| X.Z.( F.4 ' A.m ( U.XX4.L a.k.gXy yX8 J.!. X;XW.q.7.",
"L.- % i.yX] i m / e % A.) V [ M L U k.8.U.lX(.XXc dXA..X!.b.o A M.#XQ.(.|.` u i =...o.Z O.^.aXvXV.^ Z ~.vX5.[.| ( K.1.`.:X3.~.K ",
"S s T 5 : a.m.c R { f.r @ A I k G 4.^.Y.4.4 M.I 0.vXO.O.~.6 : V.KXfXoXBXJ ~ b B U U iXY.k E.&XY S M vX7X,X9.s.p D F % A T C.Q.Z.",
"n L b % n 6 Y h l h Y h S.B X.m E Y F.X.O N kXX.C.'.m b k.$.h.T.X.iXG X.XX| Y f.T.A.S VXcX#Xr.K.{.8 ^.s K k.%.b.% s Y ` o q.q.H.",
"OXL N [ n 1 # k.|.A ; C._ B 2.B.V.v.|..X| J ~ }...[ I aXO.% k A._.CXV ` T.0.vXY.b y V [.mXk.F V L K.+.+.e I 1 iX.X=X( Z { k j 3.",
"j.= > 7 2 gXS 4.r.P.z.!.x.zX( ^ P (.3 o.k.P.| ).Y.T '.tX..[ V u G H A |.|.F.9Xv.+ k : ^ 3.( {.[.@ @ 4.K.P S.4.w.V.`.L &.K.( j L ",
". < y S I.I.Q.~.9X,XY X.K 2.^ L G 4.F p 4.k.S.] ^.4 { _ U n...) Y | X e D.V r Y C.T.H./ B.T S.:XP.O.2.S.< M.(.U.T Y ) W *X:X`.3 ",
"i.3.^ <.2.C U sX_.I ( U.| d.k.h.{.Z.n G.nXk.F V /.8 = e e =X[.: & c.;Xk.V 3 Y t Q.w.~.F.~.P Z.v.nXgXZ @X2.{.A.gX/.dXCXfXfX!.V.^.",
"V b 2.T.I.j = 1 <.^ i A.g.5 n.' i.A.* b.kXdXS.i 7 ;XP.k } iX/.D ] `.x.| % T O.A.k.Z E.B.4.S.G !.|.| V.5X.XP.;XBXZ.=XS.k.T Q.R.4X",
"g D.+.8 :X,.$.K 4.>.m A M R t 7.%.V n V XXVX X[.%X[.| R V oX[.' 3.7X/.|.Z.dXoXt.7XQ.a g %X{.U.r.( lX4Xu.VX#XL `.'.g.%.3.q.bXfXMX",
"1 _ l.P.#Xl.@Xf.~ P < = k.' k.=XU.[ |.[ | tX^.BXk ).'.s M k /.{.h.x.).[.P XX.X;.3.&XP.4X=XaX4.r.F.w.#Xe.wX+X*.zXaXL G.T.*X X).I ",
": ` _.j.; S e B.~ ( f.< + p z ( GXL.P % F . N Y } H < [.D.A 3 | gXX.| tXF.'.i a d e H.&X^.B T Z.dX<..XP.C m.fX:XK.P.0XdXS.J.`.C ",
"C 3.l.O X [.1 4 t H b S a.P X.* (.V _ Z.* b A.^.iXU Z j.n.h.< &.I g ,.U T {.' 2.bXl..Xr.| #X$XgXB.!.%Xp *.>X6.+XP.KXg.K J ^ %XLX",
"v 1 s ^ > { V.# F a B !.5.% [ ) H I c.} s.b U.( L ' P.L.j.H & j.z P % L |.0.vXE.( ~ &.k #XP ~ I.8 S. X@X,.DXy.*.`.H.3.5X$X2.2.&X",
",.G.n F % j ! r.B.| a.p Z ` 8 c.L C.v...k.O.q e E y I gXk.U f. XK NXaXa ;Xj.n.&.{ dXC.K.h.; C.s.3.*X{.HXT.R.@XLX).f.S.e.L.G.t.VX",
", $XY H H.w.M 3XO L Z i Z sXh.k./ m ] h.3 D.XXe ;.K.S T.#X=X- i , !.bXD A D.s i w.`.m.vX{.fXL.d e.0 I A.A %X5XpXb.%.g.g.K ,.1.~.",
"  A B b < _.S P ,.4.c V.> i 4.4.U B.g.3.o  .dX_ tX^.F { 3.R.H.~.| >.wX4._.( @ |./ W I G 0XT.!.H.U hX].`.K.U H.j L.!.`.%Xq.OX%.DX",
"4 J b R.c l s h v / d k.z E z n F W T g.a.A.M D :XuXH.5.$ k.D 7.K.*XE.W.T.P V k i ;.[ ( 9.<.j 0.W ,.f.=X9.@XG.#.J.1.qXe.SXjX%.-.",
"k L < 4.Z f.3.U 5 b H.qX3XcX_.K.b w = _.g.^.' T %.] l.R.( Z 0X.XnX*X:X,X~./...T v <.#X5X2.oXf., P 5.m B.w.$XN.f 2.l. XjX%XVX*XQ.",
"g O | 4.V.T 1.A.S.M.%XV.gXX Y _ & $ 1 i uXkX] A b .XNX;X{ I ` v._.Z.&.I e.jXVXp.z s.P.h Y (.7.*.z.( K.=XT.6 `.z.7.sX6.K.s.*.9 x.",
"r u H.Z.$ V w k g.&.$ | A.I.&.Q. Xs z l.tXU L 2 ).T.N h.V.G.!.A o.{ D {.9XZ.H.3X].S.^.z V.2 I.6.AX>. Xn.k.,.>.w.v ^ j u -.+X#.i.",
"h C &XP.. S ..$ @ k.V | ;XmXCX1XB.w.#.P.P.B Y X...# y X b =X&.f.X.b._.4 s.T T 1. X{./.|.Q.h.MX8X%XV.vXM.3 Q %.J.u.5Xc >.<.3.L.>X",
"z x U m h A 4 `.C.i ; V.8XA.iX_.P.~.J.K.4 p.D S k.aXA h.T S f.M < | g r D Z %.gXh.b.D.i o.aX&X!.v k h A *.&.C 0 S.d e  Xe.,.AXV.",
"SXe.=.&.~.&.O 0 X.}.E ~ 2.T.B _.U 2 5 ^ M U a p..XT H [.@ j = S F <.m Y ).K T.{.D J 1.| S _ b O.e.q.x 9.H.pXzXOXu u n L K y.t.1.",
"4X1 e I < K.l.wX{ F.G t f.Z A gX_.Y i F Z.4 s.$.P.T v I.| j u ^ _.8X XL < f.|.F S K L Z.I >.f & =.C q.1.*XKXd.N.&Xg.=XK 5Xf w a ",
"t b s *.v q.V.U U P.y k | j T Q.'.k.h a ).:X'.R.A i.v # [ 1 V @ nXsXf.^ |.c.a 3.B M i S tXyXFXb.T S.-.z.3.I.u.DXKXjX!.@X@Xb M >.",
"w j k.f.5.# L J A @XC.O.A ~ 5.|.f.F.~.1._ &.m L S.:X&.~.{.n.A.f.g.M Z ..Y.dX(.T yXj.4 _...b V | i.!.$.+X$.u.2XwXK : 5 i.9 #.,.A ",
"9.m B.4./ % O O 8 I ~ ~ { y w b S S.)._ S U P.h s gX4Xm.%Xs.4.5 j.T Z i 3.: T F.V.D.T I ^.# i c K.:XZ.P.*X4XN._.z *.C j.,.$.-.i.",
"+ r s P U.F i $.XXT.h g | D k >.V.'.4.a b 5 ;X4.a . n s l Z.V.jX6.= m.n.f.# M K S.T ;XS.k j K #.4XfXf.H.zX+X*.6.g.K =.<X*X>.*XH.",
"V K % E # A f.).s.Y g.7.%.3.r r $.S.n i # yX^.H.&.>.1.4.L J D '.d.J.p s &.#X:XB ..C pX).; cXHX6.1.>.wXI./.&X@X4.-Xz.=.c ).*X%.,.",
"V ~ >.- & $.&.V i I K {.aXF.V.@ ; | !.[ J T b fX%Xc _ A 2.k b i.2 f.>.e.a.d wXJ.L.a.d.D J.(.Y.5XU.l 7.G.Z @XP U 3.$X5X9 %.P wXM ",
"F.w + o i . > d Z R &.4 { u j ^ i F 2.k w >.m.).M M 2.3.3 oXg.O ).] z jXl.% s.*X*X*X+Xd.,.*.F.+.$.c {  XM i K *.*.z.K jXI.P 2.<.",
"E o e V 4 # q a = m A.e h % J e.R.k.g 3.3.V.R.v.W =.G.+X2.[ Z 1 C T.>.k.%X1 >.G.V.V.P D K.M.z.*.z.K b M 1.&XV.-X9 = s x J.H.=.x ",
"O o e Z Z >.a b I > X $ e ; # !.5X' ^.aXa.V.a.6 d 6.K % d s.T s $.F.7 *X#Xs.%.L ,.j $.L.*XjX$X>XFXnX&.z +X%XS.=XHXm.z $.g.#X$., ",
"P w O U k 2.B.s A n , u a a m uX_ z A.dXS.x P %.1 z.%.5.F Z.g.OX%.aXyXx.&.G.%XF -.*.6.AXj.DXPX-X1.q.P.#X1.-X%Xg.e.*X,.K z @X$X%.",
"r r e t ^ P f.^ v @ u v a q e d.. $ m a #.H.i.Z .X=.-X7XSX7.$.#.s # =.O p Q eXPXz _ +X-.z.x.ZXJ.l v [ AXV.f.I.j.l E *.9 1 x.,.u."
};
