/* XPM */
static char *_dcc63d74b6c4e049efae02578b469f39sI8mzbRdZQwc2fT[] = {
/* columns rows colors chars-per-pixel */
"64 64 254 2 ",
"   c #043B05",
".  c #332F2C",
"X  c #383836",
"o  c #433C38",
"O  c #732C2D",
"+  c #763838",
"@  c #0F5808",
"#  c #126E0C",
"$  c #18680C",
"%  c #18760A",
"&  c #1C7C0C",
"*  c #247B0C",
"=  c #276B15",
"-  c #277916",
";  c #367A19",
":  c #364933",
">  c #357428",
",  c #47443C",
"<  c #504D38",
"1  c #684637",
"2  c #724B37",
"3  c #4D7036",
"4  c #487837",
"5  c #793D42",
"6  c #386E48",
"7  c #4A4943",
"8  c #564D4B",
"9  c #4F534A",
"0  c #58554C",
"q  c #5C5956",
"w  c #715349",
"e  c #665C55",
"r  c #576948",
"t  c #57714D",
"y  c #67724F",
"u  c #696459",
"i  c #73695C",
"p  c #647556",
"a  c #645B63",
"s  c #756C65",
"d  c #736D6F",
"f  c #7C7263",
"g  c #7A7568",
"h  c #AA1F22",
"j  c #B91D25",
"k  c #98292C",
"l  c #8B3132",
"z  c #A72429",
"x  c #B62229",
"c  c #E81E1E",
"v  c #C81D25",
"b  c #D91D25",
"n  c #E51E24",
"m  c #EA1D24",
"M  c #E51D28",
"N  c #C82128",
"B  c #D52027",
"V  c #E32024",
"C  c #874D3B",
"Z  c #853E41",
"A  c #854948",
"S  c #986945",
"D  c #8E6D55",
"F  c #A57249",
"G  c #A5724D",
"H  c #AC744B",
"J  c #8F756E",
"K  c #85786A",
"L  c #847B6C",
"P  c #887B74",
"I  c #1B830B",
"U  c #18840D",
"Y  c #1B8A0A",
"T  c #1D9309",
"R  c #23840C",
"E  c #26890C",
"W  c #2B8C0D",
"Q  c #368B0B",
"!  c #29970B",
"~  c #2C930D",
"^  c #35940C",
"/  c #339B0D",
"(  c #3A9C0D",
")  c #248312",
"_  c #2B8415",
"`  c #258B12",
"'  c #2B8B13",
"]  c #2B881B",
"[  c #368717",
"{  c #338B15",
"}  c #338C1B",
"|  c #3B8C1B",
" . c #2C9413",
".. c #2D9617",
"X. c #339313",
"o. c #3A9414",
"O. c #349B14",
"+. c #3B9C15",
"@. c #33931B",
"#. c #3B941C",
"$. c #369B1A",
"%. c #3C9B1C",
"&. c #2FA30B",
"*. c #38A30B",
"=. c #3BA214",
"-. c #3AA517",
";. c #378725",
":. c #3A8C24",
">. c #35872A",
",. c #399624",
"<. c #3C9B22",
"1. c #3DA123",
"2. c #469313",
"3. c #459917",
"4. c #439C1C",
"5. c #45A60D",
"6. c #52B10B",
"7. c #43A314",
"8. c #49A914",
"9. c #43A31C",
"0. c #4BA41B",
"q. c #43A91B",
"w. c #4BAB1C",
"e. c #55AA1B",
"r. c #4CB219",
"t. c #57B619",
"y. c #53B31C",
"u. c #62B818",
"i. c #458A29",
"p. c #439C23",
"a. c #439C2B",
"s. c #489828",
"d. c #549928",
"f. c #488637",
"g. c #578835",
"h. c #499835",
"j. c #559B35",
"k. c #649938",
"l. c #44A323",
"z. c #4BA424",
"x. c #4CAC24",
"c. c #45A728",
"v. c #4BA42B",
"b. c #4DAA2A",
"n. c #54AD23",
"m. c #58A826",
"M. c #53A52C",
"N. c #53AB2C",
"B. c #4CB127",
"V. c #53B224",
"C. c #5AB824",
"Z. c #55B32B",
"A. c #5BB42C",
"S. c #5CBB2B",
"D. c #4DA333",
"F. c #4BA934",
"G. c #53A533",
"H. c #54AC34",
"J. c #58A838",
"K. c #5CAB3C",
"L. c #4DB036",
"P. c #5CB433",
"I. c #58B635",
"U. c #5CB33B",
"Y. c #64B729",
"T. c #64BB2D",
"R. c #64AA3A",
"E. c #62B333",
"W. c #63BB33",
"Q. c #6FB836",
"!. c #64B43B",
"~. c #69BA38",
"^. c #69C71C",
"/. c #5EC12A",
"(. c #69C329",
"). c #74C628",
"_. c #6AC236",
"`. c #75C839",
"'. c #7CD438",
"]. c #348E44",
"[. c #5B8747",
"{. c #589545",
"}. c #6B9252",
"|. c #58A944",
" X c #5CB342",
".X c #64A948",
"XX c #66B745",
"oX c #74BC48",
"OX c #73B955",
"+X c #778B6D",
"@X c #74AD67",
"#X c #6CC246",
"$X c #78C747",
"%X c #79CE4E",
"&X c #79C557",
"*X c #7DC762",
"=X c #82D430",
"-X c #89886A",
";X c #8B9569",
":X c #8C8373",
">X c #958978",
",X c #9B957A",
"<X c #A48870",
"1X c #A4977B",
"2X c #91A06A",
"3X c #A5A37C",
"4X c #83C959",
"5X c #88D151",
"6X c #8CD367",
"7X c #99E26A",
"8X c #968B86",
"9X c #908F8E",
"0X c #9C9384",
"qX c #A89A87",
"wX c #A99B8E",
"eX c #ACA686",
"rX c #B4A78B",
"tX c #B8B489",
"yX c #ADA292",
"uX c #B7A893",
"iX c #BCB19C",
"pX c #9F9FA0",
"aX c #ABAAA8",
"sX c #B8BBBA",
"dX c #C1B096",
"fX c #C5B49B",
"gX c #C9B9A4",
"hX c #D3BCA6",
"jX c #B8CAA6",
"kX c #CAC694",
"lX c #CECA94",
"zX c #DAD59C",
"xX c #D7C3AB",
"cX c #D2C9A9",
"vX c #D8CBB5",
"bX c #E2DDA3",
"nX c #E5CEB4",
"mX c #EBE5A8",
"MX c #F7F1AE",
"NX c #FFF7B2",
"BX c #FFFAB4",
"VX c #FFFDB9",
"CX c #BDBCC0",
"ZX c #BEC3C4",
"AX c #C6C7C7",
"SX c #CED3D3",
"DX c #D5DADA",
"FX c #E5DFD4",
"GX c #FEEFD3",
"HX c #DCE2E2",
"JX c #E7EBEB",
"KX c #EDF3F4",
"LX c #F4F9F9",
"PX c #FFFFFF",
/* pixels */
"&...|.#X%.o.q.<.&... X,.r.-.1.' ( o.!.(.-.1.# ] -.#X&.r.O.L.9.~.#X/.t.6X&Xw.5X_.$XC.h.[.J.V./ / I.I.&X%X7X=XS.9.4X#X_.I.J.%.i.] ",
">.%.] 1.-.* a.XXp.,.Z.l.=.Z.a.{ O.w.T.7.@.] ,.x.x.Z.O.c.a.`  .x.8.y.(.5X5X%XQ.&X~.XXq e r j.J.U._.$XG.5XW.(.$X`.6X5X_.n.S.s..X .",
"$...U @.G.7.^ 4.f.l.-.7.O.C.C.; - l.4.~ c.b.I.L.B.XX%Xc.W ~ = q.&.8.*.t.$XXXC._.6Xq d P d a p j.&X5X).5X$XA.`.A.&X'.`.~.!.K.@.@ ",
"} @.` ` p.<.( c.K.= @.- =.l.w.b. .,.X.x.=.q.* } q.s.S.V.x.8.H.%XI.B.m._.Q.Q._.5Xp d P d d d a 7 }.%X(._.`.(.P.T.`.V.P.!.$XoX!.G.",
"R E O._ & E * <.#.4.p.s.z.e.{ Z.,. Xw.@.n.2.s.Y.+.{ ..I.#Xb.) -.XXx.K.W.m.Q.J.[.8 q 0 9 7 t 9 t .X7XK.A.6.'.$XA.E.%XT.~._.OX`.d.",
"*.n.x.O.W E ` ,.z.| O.#.E.e.{ <. XP.A.n.XXk.E.b.! ,.F.c.h./.l.c.c.b.s. XA.R.R.}.r r }.g., OXg.(.~.(.`.P.-.%X(.1.l.XXn.m.y.w.W.XX",
"' 3.l.W W ^ s.D.| ;.~ ' l.3.l...c.B.-.y.Z.U.9.-.I.I.`.S.#X`.q.b.l.-.~.l.7.$XY.).)..X}.4 , t j.x.$XY.t.T.H.F.U. .| I.0.w.W N.4X#X",
"- W ] ,.! _ 2.+.) I.8.' Y R *.o.| q.$.' D.#Xr.Z.U.r.5.&.L.I.U.V.>.`.V.a.^ w.7.~ s.T.oX9 q r !.C.5Xt.B.t.oXXXI.O.{ V.n.e.> oX4X4X",
"u.#.* } -./ l.) <.v.h.=.=.XXC.0.q.&XG.| H.XXA.XX~.C.Z.z.l.l.%.=.`.(.B.I.<.<.L.4.H.C.S.3 d a [.F.P.q.x.1.'.(.P.Z.x.H.#Xy.Y.Q.(.E.",
"Q m.2.`.%.# @.z.!.P.c.` O.%XL...1.D.n.E.t.I.v.n.B. XA.t.w.S.y.=.5.] U.=.r. X_.5.s.n.j.9 8 8 7 ,.r.I.r.:.G.0.#X7X'.$X_.B.! w.).5X",
"@ +.x.@.+.w.9.P.p.+.;.i.#X/.T.S.P.K.z.Z.( 5.w.%.! _ ,.&X0..X3 2 3 > {.I.A.#XZ.-.z.x.{.u d P a L.8./.#XZ.v.+.!.`.^.%X_.! W.c.^.5X",
"- R ..#.#.X.- v.p.z.[ K.~./.6.Q - ,.b.l.s.y.-.# v.`..X}.1 x b b v x + +Xt f.,.$.1.t..X7 9 d t #Xy.c._.H.%.%.- W ^ x./.Z.|.%.2.; ",
"-.Y O.p.X.* * & x.b.v.<.O.$.x.{ } v.F.+.V.C.1.D.g.+XsXaXl c c n m m k SXKXsXd t }. X3 d a 7 t #XU.h.8.%.W.&XZ.F.&XU.~ O./ D.p.OX",
"T.,.7.z.%.x. .E R q.@. X) = ) +.C.y.Z.l.r.O.{.9 pXPXPXP j b z k j m k ZXPXPXCXl x Z , d P r &X/.U.#XP.q.C./._.Z.OXh.8.7.a.E.T._.",
"U.a.N.C.I ) % I - # @ ` <.| I.-.' -.Y  .] < z x w pXP l b l CXSXJ j b w sXpX+ v n V N l 8 r I.r.O.R <.U.z.w.w.p.,.l.4.=.XX*XN.T.",
"8.v.+.- -  .] h.{ * ;.- ) / X.! @.B._.j.+ N m M b z j b j pXPXPXJX+ b N k h b b z l N V j + :.1.r.~.&XI.z.V.,.A.Z.(.U.c.t.XXO.V.",
"% Y % * x.% ] c.- p.o._ | i.- z.J.a.y x x k k V m m n m k SXPXPXPXJ v c m M m k sXHXP j m N < }.x./._.y.Z.c.r.).$X!.*X*XS.U.h.c.",
"; = 7.o.~   % ..!.N.6.N.$.x.A.q.D.1 b z P DX8XN n n n M l JXPXLXPX8Xj n n M b J PXPXLXw B B r E.f.#.=.Z.#XP.@.! t.%X6X&X1.-.'  .",
"n.P.{ & % ) ^ h.s.O./ X.U.b.+.>.< x B g LXPXSXk n n n n l JXPXPXPXD b n n n v P PXPXPXaXh n < V.L.4 ;.$._ ;.' ) &.'.7X4X|.,.O.8.",
"i.a.z.M.J.4.;.> v.,.' +.` ' f.>.1 B z vXPXPXHXl n n b m z 9XPXPXaXk n n M n b J PXPXPXAXz m k > L.@X< ;.x.G.p.i.*./ N.!.U.N.O.V.",
"@ * 1.9.r.% = F.I.B.c.| v.[.j.f.l n A JXPXPXDXk n n c n b k J J l b M M b n M w HXPXPXaXh m M z 2 + x C D.$X$X~.i.z.`.A.o.i.R b.",
"& $ ] Y  .s.4.1.h.L.} ,.4 1 3 2 v c A KXPXPXaXx n j j b n n v v M M v + 5 j n j D CXAXw v M n m m m m b C !.T.K.4XH.W.'.oX#XZ.H.",
"T ' ] :.1.N.o. .@.F.>.> k B j b m n k aXJXsXl B k 8XP k b M M m M b A SXHXe j M b k z v n n n z k x M n N < h.XX6XV.B./.I. XoXO.",
"% @ $ * <.) # ;.> :.> 7 N m m m m m B k Z k B z 9XPXPXg j m M M m h aXPXPXDXO n m m M n n M z 8XZXe x m x K y d.$XW.&X X~.%X$Xb.",
"] ;./ @.- ,.] F.>.>.[.t j M z + z M M M V c b A LXPXPXsXl b v j j O aXAXAXAX8 h v b b b M n A LXPXDX+ b z qXfXt XX`.&X4Xn.y.z.OX",
"q.R U ` = s.U U ,.+XjXu v z 9XDXg z m M m n j L SXaX9Xd , w w w 0 K e e 9 s 0 e w w w + O O e SXJXPXP v x K nXuX}.%Xb.!.#XXXn.!.",
") T & ) = - @.@.3 JXDX2 b A LXPXHX+ M b x k 1 f 8 qXK >XqX>XwX:XP hXK qXJ ,X,XK uXi iXs qX>X8 K a d e l v + >XqX< j.$XoX#XP.I.P.",
"E % -.x.O.` $.[ a pX5 b v P PXPXJX8 O 1 J K g nXK eXuXP rX:XqX>XK uXK :XqXf qXK qX>X,X>XgXs uXrXu qX>X< 8 O O k v 2 ~.oX&XH.1.z.",
"/ I 5._ _ [ z.< k z b m v 8XAX8X8 g wXu dXxXi qXrXi gXf qXL qX:XK :X:XK P >XK wXf ,XK yXf qXJ K fXqXi 1XxX>X7 + z x g.I.E.C.r.t.",
"J.R % i.|.:.4 z m m n x O 7 K rX0Xi dXdXu wXfXu qXi :X0 u e i 0 0 0 e 0 0 0 e e s u g e g K ,XqXg >XfXuXJ f qXgXJ + < U.~.x.A.4.",
"@.~ +.> = {.w n n N l D u i >XrXgXrXi P 1X7 e e e -X-X,XtXkXlXbXmXmXmXzXlXkX1Xy 7 X X , 0 e 0 u :X:Xf P rXxXnXxXhXf X > O.0.C.x.",
"o.X.* & ] 3 z v + , q 0XuXuXqXL f i e X 8 1XkXbXmXmXNXVXBXBXBXBXBXBXBXVXBXVXVXVXkXo X X X X 8 i K >XqXrXqX>XK f f e 3 :.# 8.r.x.",
"Q. .] :.] + k i uXfXuX<X:X:Xg s 0 X . y zXtXeX1X1X:X-XBXNXNXNXNXNXNXNXNXNXNXNXNXVXy q f g K :X>X:X:X<X1XqXuXdXdX0X-Xv._ ,.! ~ q.",
",.* = - > o i gXfXdXuXqX1XP f i 9 X X ,X,X8XgXiX>XyX,XBXNXNXNXNXNXNXNXNXNXNXNXNXVX3X7 i K >XqXdXhXhXxXxXgXuX,X}.i.z.*.%.M.4.X.! ",
"@ * ) @.{.8 i s K :X>X>X>X>X:Xd 7 X X eXyX, eXs . g tXBXNXNXNXNXNXNXNXNXNXNXNXNXVXlX, i s P :X>XP u 0 y 3 [.J.B.%...>./ Q.XXH.;.",
":.0.+.7.4.3 0XiXqX>XL K K K P o 9 8 u tX0XX yXi 0 g lXBXNXNXNXNXNXNXNXNXNXNXNXNXVXmXu rX:Xe 0 i -X}.; m.0. Xa. XG.~.&X#X#XA.9.N.",
"] _ 9.C.N.O.> < , i 0XdXhXhX-X3 7 P wXrXcXiXFXiXiX>XmXNXBXNXNXBXNXBXNXBXNXNXNXNXNXNXi t }.f.] P.L.,.q.).P.m.W.#Xx.U.M.,.+.V.C.T.",
"! c.<.> ~.7.3.2.i.i.3 r p [.} M.3 r K eX:Xu wX. d :XMXBXNXNXNXBXBXBXVXVXBXBXNXNXNXVX-X^ W.U.x.y.-.XX(.^.#XW.O.H.G.d.4.0.t.$XoX$X",
"% :.M.N.T.s.E.%.=.=.& - <.:.a.XXV.,.;X,X7 u yX7 8X:XBXBXBXNXbXlXdXtXtXtXkXmXNXNXNXVX,XE.W..Xw.t.B.r.T.V.`.Y.4.OX.X$.N.x.W.A.H.| ",
"= :.Z.f.) { R l.-.%.#.& # R Q l.%XN.;X,X0X0XqX>Xg r bXBXbXrXkXvXvXvXvXvXvXtXtXNXNXVX3X.XD.] O.z.XX8.E.A.2.j.XXoXG.b.`.XXv.n.K._ ",
"[ 0.a.$ @ J.- _ T ..) } i.O.,.U I.;.r K 8XqXyXiXgX>X,XNX,XcX<XJ D D D D J nXuXzXBXVXeXe.4.T.J.XXa.C.E.Q 2.Q.e.C.N.*Xj.{ ^ +.W.6X",
"Q - ' 7.= ,.l.%  .E ] E.x.& ,.>.` [.gXGXGXGXGXGXGXfXtXmXqX>XS H H H H H S 1XcXkXBXVXeX@.S.+.=.H.> a.I.T.8.4Xu.d.P.V.0.).!.9.9.W.",
"w.p.` ' &  .=.r.p.<.i.W { :.;.>./ ;XFXhXiXrXqXqXqX-XbXmX,X<XF H H H H <XF J gXlXBXVXtXh.a.* l.s.e.~.K.&Xe.m.Y.4XG.i.c.t.m.n.t.$X",
"; E.O.@.x.w. ./.# +.} R { .Xi.c.-.f.-XkXzXbXbXbXzXmXNXbX8X>XF H H H H F F <XiXlXBXVX3X.XE.XXM.W t.4 | l.| E.).XXj.3.v.p.2.3.8.n.",
"  ;.] ) - Z.{ +.7.w.O.z.* E B.l.%.c.2XVXBXBXBXBXBXBXNXmX>X1XS H F H H H H <XrXmXBXVX2X} _.b.A.e.o.XXJ.J.G.@.n.W m.n.m.~.y.Y.2.$X",
"-  ._ V./ ( { ! *.=.W p.~ / ~ E  .-.2XBXNXNXNXNXNXNXBXmX:XqXS H H H S 2 S <XyXmXNXVX-X#.r.7.^ w.*.e.p.!.r.T.m.2.m.w.'.t.=XoX3.6.",
"*.O.* x.{ p.4.#.; - V.Q.(.XXG.M.] U ;XBXNXNXNXNXNXNXNXMX:XwXS H H F D HXe 1XqXMXNXNX-X(.q.I.l.* +.w.' -.r.R.k.Q 4.j.A.oXY.&X~.A.",
"T $ %.q.z.4.w.c.s.G.P.v.R.$ $.;.# % ;XBXNXNXNXNXNXNXBXBX-XuXS H H H y >Xw qX3XVXBXMX[.! O.H.w.d.g.l.v.!.n.[ R.d.n.!.e.N.i.e.; 4 ",
"Y R n.r.U E I ..l.+.& p.v.n.#.Z.E.E }.BXNXNXNXNXNXNXNXBX;XuXS H H H F S D qXtXVXVXbX3 / l.= m.e.).8.E.j.a.8.3.t.*.+.^ E 8.Y.2.; ",
"E o.W.v.@ ,.:.% # v.] <.!.&X&X/.-.w.}.NXNXNXNXNXBXBXBXVX3XuXG G H H H H G qXtXVXVXlXf.I.Z.s.&X(.T.b.#XD.- ( 4.m.u.).*.=.5.q.j.Q.",
"^ o.#.` Y [ - N.q.* I c._.c. XH.V.T.k.mXBXBXBXBXBXzXmXVXtXqXG H H H H H D 0XzXMXMXeX>.} i.|.W.E.7.!  .] 3.4.2.i.N.Q I N.e.0.=XM.",
"=Xt.3.-.S.%.$ 4 <.L.&.-.p.Z.] H.#.- > -XlXVXNXmXMX,XeXVXkX,X<XF H H H F <X-XcXtX2Xg s.$.:.:.) l.t.e.^ w.w.G.OXR.E E ` o.2.u.u.t.",
").* R @.) v.j._.:.B. .Y 4.o.- XXZ.$.) ` .X2XtXkX2X+Xp kXtXqX<XH H H H H 1Xq [.}.6 t <.c...7.Q $ 5.Q 6.r.Q.4Xd.k.E.M.E.o.).Q Y W ",
"T ) W 3.^ t.z.4.| v.Y  .<.W <.I.D.h.` Y H.I.tXzX; f.> : g e e w w w w 2 0 : ' =.].6 ) @.{.|.5Xh.%.d.5.d.0.N.u.oX4XoXA.E.E.E E 7.",
"U E <.p.w.& =.@.} C.c.1.;.-.r.I.1.b.C.q.:.4.:.{.v.!.z.d.p gXvXvXvXvXcXcXkX+Xc.$.|.h.] J.,.] ] p.>.U.2.Y.3.u.(.Q.4.= ; i.; 2.0.2.",
"r.` l.0.=.% $ $ > @.&.-.,.Y U ) :.c.d.;.[ %.n.Y  .XX(.h.g gXiXuXiXiXiXcXgXp ,.v.z.v...:.h.% R / z.~.V.n._.).K.K.+.3.| i.0.2.e.; ",
"U I W 7.x.~ * +.!.y.E T 9.} / =.d.G.x.` ` ; I.q.Y @ { E _ i.;.{.i.= 4 i.i.= E o.z.#.I.a.O.~ o.| (.$Xl.n.&XY.2.e.p.3.5.u.(.3.Q.T.",
"E +.% / & ] p.G.s.<.s.w.0.3.Y E 0.v.' Y # |.H.z.3.7.8.l.( +.i.J.i.w._ W #.A.~._ s.[ XXJ.* W.4Xe.8.q.~.N.D.W.Y.0.E.d.5.5.J.T.4.7.",
"] -.=.Y $ 2.9._ E @.o.K.!.Z.l.% R <.N...| %.) #XE.( :._ -.O.) i.- z.0.t.i.{ $Xn.m.i.s.[ m.J.Z.).V./ t.d.| A.4.p.e.R.Y.; #.3.`.' ",
"l.T % @ I $ -  .' &.p.;.:.E ~ / R ~ 9.O.I 7.j.M._ ` =.4.- U.p.$ G.:.^ ~.d.* p.W.Q.E.Y.d.8.3.b.c.=.( ,.P.' E o.3.0.d.2.oXA.^ q.0.",
"/ # I Y - # U E $ ..c.I ! & ..t.V.<.! 9.7.b.C.a.*.8.n.Y.-.,.{ ; | P.0.v.P.* =.M.z.z.7.[ m.j.d.d.d.o._ { 0.S.4.Q.; * E 2.m.m.7.^ ",
"@ # & { o.( E * %.= @ % U * % Y.).:.D..Xi.a.i.[ X.e.Q % ^ i.%.W 2.c.; ~.(.i.3.^ 3.Q o.m.W.oXR.Q.5XQ.p.~ u.W.v.!.4Xd.W 5.0.T.5.; ",
"{ U # #. .9.4.~ } _ * R Y E  .|.{ W F. XM.{ 7.2.- 3.3.8.~ x.v.A.3.OX|.h.z.p.P. .6.e.0.=Xd.4X6XQ.r.t.A.Y.r.E.E.s.u.Q.e.o.~ C.R.d.",
"Y T E ` 7.X.z.=.( # W ( Y % % s.@ U E W 2.n.> o.W.7.R.`.'.e.o.2.E % 5.@ W *.'.6X^ ;.m.6.m.i.4Xm.W +.] =Xd.z.U.d.( / 0.; [ g.3.6."
};
