/* XPM */
static char *df0f5fa44c784c1496056e9f6ba30317wNVaR7xHe2MNmHgY[] = {
/* columns rows colors chars-per-pixel */
"64 64 255 2 ",
"   c #000000",
".  c #060904",
"X  c #0B0C0B",
"o  c #0A1607",
"O  c #10130F",
"+  c #171817",
"@  c #30100D",
"#  c #14290B",
"$  c #0C3309",
"%  c #17370A",
"&  c #1D3915",
"*  c #24311B",
"=  c #1F2020",
"-  c #272727",
";  c #333029",
":  c #373938",
">  c #511A13",
",  c #681D15",
"<  c #5E3819",
"1  c #6E2818",
"2  c #433C32",
"3  c #144C0E",
"4  c #0B5B07",
"5  c #2C5115",
"6  c #0F6E09",
"7  c #176A0B",
"8  c #1B740C",
"9  c #157908",
"0  c #1C7C0B",
"q  c #1A7712",
"w  c #237A0D",
"e  c #286A16",
"r  c #336D11",
"t  c #247B13",
"y  c #2B7D14",
"u  c #287718",
"i  c #357919",
"p  c #2E5424",
"a  c #316F25",
"s  c #397926",
"d  c #4C501A",
"f  c #6E4E1D",
"g  c #47751A",
"h  c #666B1E",
"j  c #4E4635",
"k  c #765426",
"l  c #487727",
"z  c #52722B",
"x  c #69692B",
"c  c #595249",
"v  c #645B4A",
"b  c #4F6649",
"n  c #736B55",
"m  c #726F6B",
"M  c #8E2D1E",
"N  c #8D3323",
"B  c #9A3322",
"V  c #A72F27",
"C  c #A93524",
"Z  c #B73825",
"A  c #C53B28",
"S  c #CA3C29",
"D  c #DA3D2A",
"F  c #E53E2B",
"G  c #8E4C27",
"H  c #AF462A",
"J  c #856D2D",
"K  c #CE432C",
"L  c #D9412A",
"P  c #E4442B",
"I  c #EB452C",
"U  c #F2462D",
"Y  c #F6472E",
"T  c #FF4B30",
"R  c #826854",
"E  c #837760",
"W  c #C57459",
"Q  c #1C830C",
"!  c #198908",
"~  c #1C8D0C",
"^  c #23840D",
"/  c #28850B",
"(  c #238C0C",
")  c #2B8C0D",
"_  c #368B0C",
"`  c #2B930D",
"'  c #28980B",
"]  c #32930C",
"[  c #349B0D",
"{  c #38990A",
"}  c #248413",
"|  c #2B8313",
" . c #248A12",
".. c #2C8C13",
"X. c #2C831B",
"o. c #2C8C1B",
"O. c #338C14",
"+. c #33841B",
"@. c #338C1B",
"#. c #388818",
"$. c #2C9414",
"%. c #2C9417",
"&. c #339314",
"*. c #3B9213",
"=. c #349C13",
"-. c #3B9B14",
";. c #33931C",
":. c #3A941B",
">. c #359A1A",
",. c #3C9B1B",
"<. c #2CA20C",
"1. c #33A50A",
"2. c #3CA20D",
"3. c #3CA314",
"4. c #39A518",
"5. c #378724",
"6. c #3A8C23",
"7. c #328D28",
"8. c #3C9423",
"9. c #3C9B23",
"0. c #399628",
"q. c #3CA225",
"w. c #3FA132",
"e. c #438A1A",
"r. c #4B9D12",
"t. c #459818",
"y. c #429C1C",
"u. c #45A70D",
"i. c #55B40D",
"p. c #43A414",
"a. c #48A815",
"s. c #4AAA14",
"d. c #43A31C",
"f. c #49A41C",
"g. c #45AA1C",
"h. c #4BAC1C",
"j. c #54AB1A",
"k. c #4BB318",
"l. c #53B31C",
"z. c #58B719",
"x. c #62B719",
"c. c #458B28",
"v. c #588B2F",
"b. c #439B23",
"n. c #4B9C24",
"m. c #479428",
"M. c #429C2B",
"N. c #4B9D2A",
"B. c #56992B",
"V. c #498A33",
"C. c #489835",
"Z. c #549B35",
"A. c #62913D",
"S. c #44A323",
"D. c #4BA423",
"F. c #44AB24",
"G. c #4CAB24",
"H. c #44A22A",
"J. c #4CA42A",
"K. c #4DAB2A",
"L. c #53AD24",
"P. c #53A32C",
"I. c #53AB2C",
"U. c #58A928",
"Y. c #4DB125",
"T. c #53B324",
"R. c #5AB424",
"E. c #5BBB25",
"W. c #54B32B",
"Q. c #5BB42C",
"!. c #5CBA2B",
"~. c #4BA333",
"^. c #4CAB34",
"/. c #53A433",
"(. c #53AB33",
"). c #57A838",
"_. c #5CAC3C",
"`. c #4DB333",
"'. c #5CB433",
"]. c #58B634",
"[. c #5DB43B",
"{. c #64B828",
"}. c #63BC2D",
"|. c #65AB39",
" X c #63B434",
".X c #63BB33",
"XX c #6ABC34",
"oX c #62B43C",
"OX c #64BC3B",
"+X c #6BB93A",
"@X c #71B637",
"#X c #5CC41C",
"$X c #65C61B",
"%X c #5EC12E",
"&X c #67C328",
"*X c #76C92A",
"=X c #6BC234",
"-X c #69C339",
";X c #76C739",
":X c #7CD135",
">X c #549943",
",X c #6A954A",
"<X c #74944F",
"1X c #59AA44",
"2X c #5CB343",
"3X c #66A947",
"4X c #67B846",
"5X c #74BC46",
"6X c #70B854",
"7X c #7BB860",
"8X c #6CC343",
"9X c #69C149",
"0X c #77C747",
"qX c #75CB4D",
"wX c #78C557",
"eX c #7DC862",
"rX c #83D337",
"tX c #94846B",
"yX c #92906C",
"uX c #A9997B",
"iX c #B09E7F",
"pX c #98AF64",
"aX c #9AA46C",
"sX c #83CC46",
"dX c #84D34C",
"fX c #84CB57",
"gX c #88D456",
"hX c #8CD366",
"jX c #9CE16C",
"kX c #8A8885",
"lX c #BBA987",
"zX c #BAB189",
"xX c #B5B6B3",
"cX c #C2AC8C",
"vX c #C5B38D",
"bX c #CBB692",
"nX c #D5BE98",
"mX c #C3BCB4",
"MX c #BBCBB8",
"NX c #CCC190",
"BX c #D8C59A",
"VX c #DBC59C",
"CX c #E1C99E",
"ZX c #E4CBA2",
"AX c #ECD3A7",
"SX c #F2D6AA",
"DX c #F5DAAC",
"FX c #FBDDAE",
"GX c #FBDEB2",
"HX c #FDE0AF",
"JX c #FFE3B3",
"KX c #FFE8B8",
"LX c #D1CFCD",
"PX c #E7E7E7",
"IX c #FBFBFB",
/* pixels */
"1. .~.4X8.-.h.9.<.' ^.7.k.g.4.} [ *.4X=X=.g.7 q 4.9X1.i.=.`.g.-X8X!.z.gXeXf.dXOX0X{.8.W.B.T.$.1.W.].hX0XjX;X&X:.fX9X%X].C.4.c.O.",
"u 9.%.w.4.w m.4X9.8.!.H.g.Y.C.@.[ l.Q.p.>.X.0.G.l.].<.q.9.~ %.F.3.#X&XgXgX0XXXfXXXXX4XR.Q.T.P.oX8X8X).dX}.=X=X;XhXqX}.I.}.m.3X=.",
",.>.~ o.~.u.*.D.c.J.g.p.-.Q.T.y u b.b.` q.I.].`.`.4XqX3XyXyXz r =.s.2.z.sX3XR.=XgX;XdXrX;X'.|.N.fX0X*XsXrXQ.;XQ.fXrX;X+X X_.o.4 ",
"@.6. .Q 9.S.{ S.1Xe ;.t 3.F.f.L.&.,.$.K.=.g.t ;.d.a n VXKXZXtX2 s L.n.;X5X{.;XwX6XwX=X{.@X+X5X|.gX0X*X8X;X=XW.=X;Xl.'.OX0X4XoXZ.",
"0 ( ] } 0 ..0 ,.:.y.n.M.G.j.O.].,.1XG.:.I.t.n.).%   j AXDXm 2 n ; 5 z ).R.@X). X|.n.N.W.}.{.;XsXdXhX_.Q.i.sX0X X XwX}.+X=XwX;Xn.",
"1.T.Y.-.../ } 8.f.#.=.:.'.j.O.9.2X'.I.e.4X3Xz O . j iXKXlXX + =   . o 5 c.|.@X0XrXoXA.{..X9X}.$X[.*X;X'.4.0X&Xq.S.+XR.Q.l.D.XX3X",
"` y.d...` ] n.J.+.5.` ..H.p.S.%.q.T.p   # : X ; mXLXAXJXn               * fX{.*X*X0XhXE.-X9XT.F.qX#X{.'.`.^.[. .:.].f.h.) (.fX3X",
"u / ;.8.' | e.d.t OXk./ ^ ^ 2.*.@.S.i b c m m PXIXLXCXJXv       v zXv . # D.p.` n.{.;X-X[.hX=XE.dXz.l.z.+X4X-X` o.Q.j.f.s 0XgXfX",
"j.*.w O.p.[ H.} ;.P.~.3.>.4XE.p.d.qXP.MXIXLXLXIXIXmXDXnXv     v KXSXKXtX3 N.K.t.).E.{.z.'.jXdXG.[.k.D.F.:X*X].Y.h.(.8Xk.{.XXXXQ.",
"{ R.e.;Xq.9 o.b.4X'.K. .` dX].o.M.M.N.mXkXyXm m LXnXAXVXn   X ZXv n JXAX/.2X3X% + i 1X'.-X$X3.3.T.].s.o.J.f.8XjX:X0X-XY.` T.*XsX",
"4 t.f.;.-.l.g.Q.8.=.6.c.9X%X.X!.'.3XiXCXDXJXJXVXCXSXyXDXbXv tXlX  v KXSX|.l .     O >X+X0X=X`.l.s.%X9X!.H.S.-X0X$XqX8X'  XJ.$XfX",
"e ^ >.:.:.>.t /.b.f.#._.-X!.i._ N.VXJXJXGXVXZXJXSXCXVXVXJXJXJXVX- yXKXZXp         . Z.Q.4.K.G.9Xk.F.-X(.,.>.e ` ] k.&XQ.1Xt.r.+.",
"-.~ &.S.=.8 w 9 F.I.N.9.-.4.T.#.zXJXFXAXVXAXVXnXDXGXGXGXFXSXSXJXn nXJXiX          % Q..XK.! w.qX_.C.s.,.-XqXQ.).eX).` ;.=./.b.7X",
"}.:.-.f.y.G.[ ) / g.o.4XQ u / c.SXFXFXFXZXcXnXAXzXSXFXGXFXAXBXHXbXDXAX;         5 .Xz.z.6XG.9X-X[.8X(.h.!.!.OX'.wXN.s.a.M. X}.=X",
"2X8.I.{.Q | 9 0 t 8 4 %.M.:.]./.DXJXJXnXlXnXSXzXxXn FXFXFXFXCXBXCXCXj           & V.D.{.^.<.].k.>./ J.[.f.k.G.m.9.F.-.3.3XfXI.!.",
"p.(.*.} u %. .C.O.| +.u q 2.&.;.zXKXaXaXJXSXAXE   . bXJXFXFXHXVXbXDX; .           . p G.-X^.q.4.k.].wX[.D.Y.b.Q.L.&X'.q.%X4X=.T.",
"7 ( 8 8 G.6  .^.y e.*.| :.6.u b.).,X>.B.DXHXJXlX    tXJXHXHXHXZXVXDX-                 $ 4XwX6XwXG.&X-Xz.I.K.Y.*X0XOXeXwXW.2X~.9.",
"i 7 u.*.] 3 6 ..4XP.i.W.9.S.!.a.S.>.I.D.bXJXFXBX  , W JXHXDXHXZXlXZXX     X             & ;.h.}.4.] 4.!.8X].;.' $XqXjX7X4.>.O...",
"L.'.:.Q q 0 ` m.N.-.2.] oXK.>.] ] p.[.5XpXGXFXDX; @ R JXFXFXHXCXtXE       +               & 8.p.S.>.O.9.X.6. .Q 1.:XjXfX>X;.[ h.",
"c.N.n.P.[.D.c.a S.8.o.p.) ..&.Q ` s.}.XXQ.NXHXAXVXbXAXFXFXDXHXbXE j       + X       X .     & ` W.6XN.@.L./.y.c.2.[ '.[.4XK.3.T.",
"4 w S.4.s.0 7 1X2XW.K.6.I.[.f.+.n.a.4.z.l.,XGXcXHXJXHXFXFXFXKXn           - - = X   + X       e K.qX4X XW.:XdX5Xm.J.;XU.-.m.^ I.",
"8 7 X. .%.N.,.q.C.`.@.o.;.<.c.#.l.,.e./.;XT.aXbXiXJXJXSXSXKXVX+         = = O       O O         #.%X(.N.oX'..X3X7X(.-X:X4X8XQ.~.",
"`  .+.@.9.`.{ O.@.(.7.8.S.3.J.m.B.O.5.B.g.3X<XbXcXuXbXVXDXvXc                 m kX  + =         # G.m.D.}.}.J.4XhXz.G.&X`.4X4X3.",
"! 3 8 w 9.} 6 +.i 8.q y n.V.pXBXSXzXZ.u ,XlXbXzXJXtX: c ; - ; 2 X         . xXIXPX. X X           r $X#Xb.2.L.K.0X=XwX2XOXgX8X].",
"X.5.' ;.q 0.o.~.7.7.,.,XlXbXGXGXZXJXVXzXcXcXVXDXCXvXtXn uXnXAXKXtX          m PXkX                o G.$.n.1Xh.}.[.;XwXwXL.l.f.7X",
"4.Q Q  .e m.Q ~ 0.} <XnXVXGXSXbXbXZXlXzXlXKXZXiXiXVXKXKXJXJXJXVXj           + -                     a '.(.z.:.P.oXqXJ.oX0X4XL. X",
"t ' 9 } e y o.%.q A.AXbXJXFXyX,XiXlXuXuXHXDXlXDXJXJXAXAXJXJXZX,Xo . .       .                       # 4X~.^ n.} h.k.8X5X0X].).T.",
"( 9 4.G.-. .>.^ C.aXnXlXZXbXP.g.] aXuXvXHXnXCXJXv j + + j n 3X0.7.s p #                               5.^.[.4.F.W.T..X0X4X(.9.F.",
"1.w s.o.y @.f.%.5.BXGXcXcX>X.Xo.3XvXJXnXlXlXSXuX          5 _.} %.O.e %                               & 0.4X .>X5.R.Q. XoXR.z.j.",
"U.^ 0 c.1X6.} ` 4.V.<XaXyXy 7.zXFXKXDXBXtXE ; X         . s 7 +.Z.].l V..                             # 4Xh.2X9.y.D.h.(.+Xh.}.;.",
"o.` ,.i e 6./.=.' ;.,.Q 9 o.5.VXJXaX,XK.e             . 5 X.e K.hX9XV.3X%                             . y.z.8...6._ 0 X.-.f.T.l.",
"y *.| 0 +.s ,.~ ] ' >.` F.X.0.V.<Xo.Y.w.3   & p 3 % 3 u M.y.m.r u >Xa 7.V.                  . .         r n.t.C.Q / >.5.6 k.k.I.",
" X[ } 0.} i 8 M.(.+.w F.5...,.S.H.~.`.'.9.y 4.`.w.0.0.4Xy.t $     X o * &               + - : .         & ,.| 2X.X3X4.+.0.' ] d.",
"m.u q a u 4X;.h.z.T.B.].V.6X4.p.-.^.X.0.H.I.q.).G.q.~.>X8.3                       - : : : : +           % ~.g.l.D.I.=.d.P.4.` >.",
"4 t  .@.U.I.W.W.-X#X,.M.:.f.3.&.$.4.` ( F.M.J.5.~.y m.5.e                       . + O + : =             o ~.K.Y.4.>.o.3.XX+X(.y ",
"c.f.3.p.f.+.:.4X`.;.d.G.:.b.b.M._.Y.r f J x  .o.^.s 7 } %                             X .               o _.H.6X(.4XwX4X4XQ.D.~.",
"o.} d.T.I.] 8 y a.3.( H.N.i C.8.m.V.N A D F k Q s OXK.%.o                                               O P.OX9XI.oXJ.b.d.R.R.&X",
"' D.9.s +Xp.r.*.d.p. .+...1.~ j.g N S S Z P A V.OX).H.' o                                               X U.-._./.n.t.f.s.0X5XwX",
"w 6.J.I.}.N.{.S.3.3.8 u y.7.M._.G F U U D Z D ,X4.(./.] o                                               X U.f.6X3X>.I.T.XX'.I.;.",
"e @.].V.| @.0 S.4.q.b.w 6 ^ ] %.H I I I P C F h q.o.q ^.5 , B @                                         & Z.+X-XP.K.-X[.J.R.).| ",
"+.r.N.7 3 _.t | ~ $.} 5.c.4.w.q H I P I I Z P G _.:.O.x S Y C @                                 . O p r r.@Xx.R.(.eXm.*.] 3. XhX",
"*.y / 3.u 8.F.8 ..( ..Q.f.0 7.o.f I I I I S S P i 0.l S Y N                               o % a 5 5.l R.f.sXx.D.(.T.j.;X|.d.d..X",
"a.D.} $.^ ( =.l.9.9.C./ O.7.5.C.i A I P I L Z U k 8 < F Z s s o             . %         . # 5 * o .   3XP.v.{.fXP.m.J.z.U.L.z.wX",
"r oX>.;.L.l.$.%X7 -.O.w O.3Xm.0.4.h D I I I Z P S N S Z x oX| | 5 # o   # p | ..#                     d C Z G j k g m.S.*.a.u.Q.",
"$ X.| } t I.@.-.a.g.-.F.w ( F.g.-.q.k D I I S A Y C B A H P.l.}.4.f.|.e Z.g.9 !.#.X                 . A U A Z M S Z l  Xz.{.r.dX",
"u %.y E.] 1./ ` [ 3.&.n.] [ ] ..$.3.0.J I I P Z I I I C K A.;.l.N.XXW.#XT.>.o.[ ( e.O           . @ , C C N > M 1 L h z.rX3Xr.u.",
"' 4.0 G.O.n.f.:.i | l.;X&X4X).J.} Q w N.k I I Z K I L C F h -X].0X}.4X$X!./.0.>.{ k.U.r > > 1 V A P U I U T C @ > Z A.0X X7X@XQ.",
"' 7 :.g.J.,.a.H.N./.].F.3X5 >.5.7 9 y } 1XH U P Z U K C Z a 7.C.(.I.y.>.z.5XwXc.] e.T.O.A Y Y F I L D A Z B , @ , C t.P.y.a.g V.",
"! ^ h.T.Q } Q =.S.,.Q 9.H.U.b.W.Q.) ] N.>Xl Z P H L U G m.L.U.X.0.8.#.).-XK.L.&X/.N.N.$.h N J J x N Z K >   @ > B f ( ( i.{.g t.",
"` _  XI.4 o.8.9 6 N...0.oXqXwX%XS.l.e.I.I.} 1 Z A Z I A r  Xd.b.C./.~.u y.,.,.k.[._.).W.W.0.0X=X-XG Y I L Z B > D h 2.p.2.h.).+X",
"] e.:. .~ #.u (.G.} Q D.=XS.[.(.W.!.R.P.i 8.d A Z C A U G #.N...t 9.' ~ #.*.t.3X9.C.H.( C.1X.XQ.2.5 S P D C 1 F Z 7 ^ '.j.j.rXf.",
"rXz.2.d.!.b.7 l 9.`.1.4.S.Q.X./.6.u i 4.o.:.g F I L Z L G ( 8 %.&.3. .>.).:.T._.6.*.k.9.@.5.t ,.z.f B B B A U U 1 ( ) &.t.x.z.s.",
"*X^ 0 &.t J.N.0X0.K.' ~ S.*.y 4X].>.^ $.K.y l H U U I V g ` ) -.`.;XW.[ } 8.W.$.@.*.[ K.o.g._ 8 y Z U I U I I D z N.+X_ *Xy ! ) ",
"' ^ ..r.{ i.D.y.6.W.~ =.9.` 9.`.~.C.` ^ (.+X'.v.G K H d @.u o.0 0X3XN.3.].C...g.X...( o.>X1XgXC.< U I I I I U C 6X0XQ. XQ./ $.u.",
"! ' 8.N.L.8 =.-.#.R.F.q.5.3.g.].q.G.!.f.5.,. .=.n.A.*.Q.[.C.H.S.n...) 0.W.4X^.>.1Xm.y ).0.} } d Z D F I I I P d ,.e i m.g e.r.#.",
"k. .F.d.4.Q 4 7 s :.4.4.;.Q Q } 6.J.P.5.#.:.L.` | 5X=XP.'.m.g.r v.,.O.} d.e ,.J.K.J.>.@.H.6 < C Z A A P P U Z 5.] r.#.V.p.r.s.e.",
"9 ! ( -.G.$.0 r.[.Y.` ' 4.#.$.p.D./.G.~ | u .XF.( 4 | ` ] D.D.+Xj.0 Z.C.H.8 O.*.J.,.OXS.' 5 D U I S K I U F f T.n.t.u.#X=Xf.XXR.",
"( t.0 1.8 5.S./.m.;.m.L.y.f.~ ( t.J...^ 8 1X~.I.y.a.s.q.[ &.6.).c.R.| ..y.}.-X| m.#.2X).7 V U P I I A P U C #.l.@XB.u.{ (.}.t.a.",
"o.4.3.^ 8 *.b.O.( :.*._.oXI.D.8 w ,.'.>.#.:.^ 8X X] 5.| 4.=.t c.u n.f.x.m.O.0XL.(.c.n.e.e.C U I P I P I F x >.:.f.|.&Xg t.-.;X..",
"K.! 9 4 ^ 4 t ) ..<.y.y 6.( ` 2.( $.b.=.! p.Z./...` p.f.y [.n.7 (.6.` +XN.0 e.XX@X{.{.n.a.f F U I I I I 1 0 ,.r.r.B.e.0XQ.-.f.p.",
"=.6 9 } y 8 9 ( 8 $.H.Q ' 0 $.z.T.M.' f.d.J.E.C.3.s.D.{.d.6.O.y #.W.,.N.'.y p.P.y.G.-.#.U.V.< C F I P 1 t..XD.@Xc.8 _ { U.D.u._ ",
"7 6 0 &.&.p.( ^ ;.w 3 9 Q t 8 Q.*X6.^.1Xc.D.c.i _ j.*.0 ] m.,.( t.K.u +X}.m.t.] a._ t.U.=X6X).v.h k d _ x. XJ.oXfXB.) r.n.}.u.r ",
"-.Q 7 ;.[ ,.n.` +.O.w / Q (  .3X+._ H.2XJ.*.-.y.y n.t.a.` l.N.{.t.3X).C.y.D..X$.i.n.r.:XB.0XjX@Xk.i.].}.k.@X Xn.x.XXj._ ]  X|.t.",
"~ ! ~  .3.-.S.3.{ 6 ) { ( ! 9 n.4 9 ..( t.R.c.*. Xs. X=XrXL.-.e./ 0 u.7 | 2.:XjXO.5.{.i.U.V.wXR.] [ 7.rXn.D.P.m.{ ' f.i _ V.f.x."
};
