/* XPM */
static char *_80ed79a4d2b4e769b3bd6da9de43adeEhLWReqXSfqYvatw[] = {
/* columns rows colors chars-per-pixel */
"64 64 254 2 ",
"   c #182B19",
".  c #0C5C07",
"X  c #11510B",
"o  c #166A0B",
"O  c #106D09",
"+  c #1B730C",
"@  c #157908",
"#  c #1C7D0B",
"$  c #1B7C10",
"%  c #227A0C",
"&  c #276B17",
"*  c #2C6A12",
"=  c #247C13",
"-  c #287917",
";  c #347A1B",
":  c #325B33",
">  c #367926",
",  c #35742D",
"<  c #437B17",
"1  c #49782D",
"2  c #487A39",
"3  c #25565C",
"4  c #2A5058",
"5  c #3D6559",
"6  c #19596E",
"7  c #1B6379",
"8  c #376B75",
"9  c #336D75",
"0  c #535553",
"q  c #4F724E",
"w  c #597656",
"e  c #65785B",
"r  c #4B706C",
"t  c #697964",
"y  c #70746C",
"u  c #787977",
"i  c #1B830C",
"p  c #1A8809",
"a  c #1A9008",
"s  c #1E8711",
"d  c #23830C",
"f  c #28850A",
"g  c #248B0C",
"h  c #2B8C0C",
"j  c #348C0C",
"k  c #27970B",
"l  c #2B930C",
"z  c #32940C",
"x  c #379A0B",
"c  c #258414",
"v  c #2B8313",
"b  c #258B12",
"n  c #2C8B13",
"m  c #2C831B",
"M  c #2C8B1A",
"N  c #328C14",
"B  c #32831B",
"V  c #388718",
"C  c #348C1B",
"Z  c #2C9413",
"A  c #2B9517",
"S  c #339314",
"D  c #3B9413",
"F  c #349C13",
"G  c #3B9B14",
"H  c #34931B",
"J  c #3B941C",
"K  c #349A1A",
"L  c #3B9C1B",
"P  c #2EA20C",
"I  c #37A40C",
"U  c #3CA214",
"Y  c #38A716",
"T  c #3DA31A",
"R  c #378824",
"E  c #348B28",
"W  c #3C9423",
"Q  c #399626",
"!  c #3C9A23",
"~  c #3DA226",
"^  c #4B9517",
"/  c #469918",
"(  c #429C1B",
")  c #44A80C",
"_  c #53B40C",
"`  c #43A414",
"'  c #49A415",
"]  c #47AB14",
"[  c #43A31B",
"{  c #49A51C",
"}  c #45AA1C",
"|  c #4CAB1D",
" . c #55AC1B",
".. c #4BB217",
"X. c #57B618",
"o. c #52B31C",
"O. c #63B616",
"+. c #438E23",
"@. c #448B2A",
"#. c #439C23",
"$. c #4A9C25",
"%. c #469528",
"&. c #439D2A",
"*. c #4C9D2C",
"=. c #539A27",
"-. c #4B8638",
";. c #558B3C",
":. c #499935",
">. c #579A36",
",. c #649B3D",
"<. c #43A323",
"1. c #4AA424",
"2. c #46A925",
"3. c #4CAB24",
"4. c #45A22B",
"5. c #4CA42B",
"6. c #4CAB2B",
"7. c #52AD23",
"8. c #56A729",
"9. c #53AB2B",
"0. c #4DB124",
"q. c #4BB228",
"w. c #53B324",
"e. c #5AB424",
"r. c #57B62A",
"t. c #5CB42C",
"y. c #5CB92B",
"u. c #4BA232",
"i. c #49A833",
"p. c #53A533",
"a. c #54AD33",
"s. c #59A837",
"d. c #5CAC3B",
"f. c #4DB232",
"g. c #55B333",
"h. c #5BB737",
"j. c #5DB434",
"k. c #6AAF2F",
"l. c #65B82A",
"z. c #63BB2D",
"x. c #66AD38",
"c. c #63B434",
"v. c #64BC33",
"b. c #6ABC34",
"n. c #63B33C",
"m. c #6AB538",
"M. c #65BC3A",
"N. c #6ABB3C",
"B. c #5CC21B",
"V. c #63C319",
"C. c #5EC02E",
"Z. c #66C328",
"A. c #75C72A",
"S. c #6AC336",
"D. c #75C739",
"F. c #7AD234",
"G. c #568545",
"H. c #58904A",
"J. c #6A944E",
"K. c #688557",
"L. c #5BAA43",
"P. c #5CB242",
"I. c #66A947",
"U. c #62B343",
"Y. c #67BA46",
"T. c #75B847",
"R. c #6EAE53",
"E. c #77BB56",
"W. c #76866E",
"Q. c #689F6E",
"!. c #6AC245",
"~. c #76C648",
"^. c #77CC4F",
"/. c #79C556",
"(. c #7BCA62",
"). c #84D337",
"_. c #84917A",
"`. c #87B76C",
"'. c #83CB48",
"]. c #84D34F",
"[. c #84CA59",
"{. c #85CA64",
"}. c #91D86A",
"|. c #97E162",
" X c #1B6C86",
".X c #1D728D",
"XX c #1D7895",
"oX c #2D758B",
"OX c #317389",
"+X c #367589",
"@X c #287B96",
"#X c #2A7FA2",
"$X c #4B7C8B",
"%X c #517F8D",
"&X c #737D85",
"*X c #807E81",
"=X c #1E809F",
"-X c #30819C",
";X c #1E83A4",
":X c #1E88AB",
">X c #1B8CB4",
",X c #1B92BA",
"<X c #2485A7",
"1X c #218EB3",
"2X c #2193B9",
"3X c #548291",
"4X c #6E8991",
"5X c #1B9BC6",
"6X c #1F9FD0",
"7X c #2299C3",
"8X c #229FD0",
"9X c #1DA1CD",
"0X c #1BA6D7",
"qX c #21A2CD",
"wX c #22A7D5",
"eX c #22ADDC",
"rX c #23B0DF",
"tX c #1FADE1",
"yX c #1CB5E9",
"uX c #1EBCF1",
"iX c #23B4E4",
"pX c #21B6EA",
"aX c #23BCEF",
"sX c #23BEF2",
"dX c #1FC0F6",
"fX c #23C1F5",
"gX c #23C4FA",
"hX c #24C8FF",
"jX c #898A88",
"kX c #8A9396",
"lX c #949595",
"zX c #9C9B9C",
"xX c #A09F9F",
"cX c #A29EA3",
"vX c #A4A3A4",
"bX c #A9A5A7",
"nX c #ACABAD",
"mX c #B2AEB3",
"MX c #B6B5B7",
"NX c #C2BEC3",
"BX c #B8C0C2",
"VX c #C9C7C8",
"CX c #D1CDCE",
"ZX c #D9D7D8",
"AX c #E2DCDA",
"SX c #E3DFE0",
"DX c #E4E2E5",
"FX c #ECE7E8",
"GX c #ECEBEC",
"HX c #F2ECEA",
"JX c #F1EFF0",
"KX c #F5F4F5",
"LX c #FBF6F4",
"PX c #FFFFFF",
/* pixels */
"P b i.Y.J G } Q P l f.E ..} T c x S U.Z.F 2.O = Y !.I ) F f.| S.S.r...|.{.p.{.J.R.I.;.x.s.t.F x r.h.}.~.|.~.Z.K {.!.C.h.u.L @.n ",
"- ! M ~ L % &.Y.#.J j.4.` q.:.N F o.l.` H m Q 3.o.g.A q.4.M A 6.) S.E._.jXjXlXvXvXzXlXjX_.G.G.U.S.!.s.^.j.A.S.F.}.^.v.7.z.%.I.F ",
"L K s M p.) x $.@.4.] T F y.w.- - #.#.l ~ i.g.g.q.Y.^.6.f l + | s.W.kXNXJXPXPXPXPXPXPXPXJXCXcXu lX].A.'.D.l.D.c.[.F.D.m.n.d.n . ",
"C H Z s &.#.x 2.P.& H = U 2.{ 7.z ~ S 3.I } v M T $.y.w.{ ' x.Q.jXZXPXPXPXPXPXPXPXPXPXPXPXPXPXGXxXK.A.D.D.S.t.Z.D. .j.n.~.Y.m.p.",
"# h z c # h % L J / #.%.7. .N t.K P.2.C | +.%.t.` H Y j.E.g.t mXPXPXPXPXPXPXPXPXPXPXPXPXPXPXPXPXPXBXt N._ '.~.c.c.~.l.N.b./.b.$.",
"P 7.w.K n f d Q { J F J s. .N ! d.j.t.7.U.x.m.6.l H 4.2.:.t VXPXPXPXPXPXPXPXPXPXPXPXPXPXPXPXPXPXPXPXnXJ.Y ~.Z.~ 1.Y.w.l.X.1.N.U.",
"l ( [ n l z $.5.R R l n #.` 2.A <.w.[ o.w.j.[ Y h.j.S.z.K.VXPXPXPXPXPXPXPXPXPXPXPXPXPXPXPXPXPXPXPXPXKXW.d.4.h.h H h.{ 1.j t.{.n.",
"* h J Q k v +.U % h...v g d I D C } K b :.~.o.w.h.....-.MXPXPXPXPXPXPXPXPXPXPXPXPXPXPXPXPXPXPXPXPXPXPXzXR.Y.M.Z C e. .' , ~.[.[.",
"O.D % B Y F <.c W 5.*.U L P.y.' [ ^.a.V d.U.j.n.N.o.x.kXPXPXPXPXPXPXPXPXPXPXPXPXPXPXPXPXPXPXPXPXPXPXPXbX'.Z.g.r.{ a.!...l.l.b.k.",
"j  .^ D.( @ C #.U.j.3.M l ].g.A 4.u.t.c...S.9.1.w.Y.u DXPXPXPXPXPXPXPXPXPXPXPXKXzXNXKXPXPXPXPXPXPXPXPXjX;.{ !.|.F.~.S.0.k e.A.'.",
". G 1.H D o.} j.#.F J @.!.Z.v.y.Y.J.G.w =.) | [ k 2 cXPXPXPXPXPXPXPXPXPXPXPXPXPXKXMXjXcXNXZXDXDXZXNXjXG.5.T S.~.V.^.!.k c.6.V.].",
"& d K L J K = 5.#.1.B s.Y.y._ z q @XyX9X8 ,.I o p.K.FXPXPXPXPXPXPXPXPXPXCXCXCXSXGXPXPXGXw 2 q K.q G.U.g.L K & l F ..Z.t.L.L ^ R ",
"G a K $.x % = # 2.6.*.! I 1.w.j q 0XuXsXyXr :.Q s.jXPXPXPXPXPXPXPXPXPXKXmXnXbXxXxXzXzXbX0 E ~ ^.j.:...K S.^.w.a.(.a.l J F p.Q E.",
"y.W ( [ L 0.Z h f } H U.2 5 q >.;.2XsXaXgX,Xw S.G.VXPXPXPXPXPXPXPXPXPXPXPXPXPXPXPXPXJXZXMXkXe J.U.D.a.} r.S.M.j.E.u.' ] &.c.z.b.",
"P.Q 9.l.d v # p = + . G.#XuXtXOX* 9 sXsXsXuX8 t.K.&X3X4XCXPXPXPXPXPXPXPXPXPXLXGXFXJXPXPXPXPXGXmXy @.<.n.[ | { &.~ <.G G U.(.9.z.",
"` 9.D d - M b :.v = R r pXsXsXsX=X0 8XsXaXgX<X1 9 0XyX0X+XHXPXPXPXPXPXPXZXkX3X-X-X+X3XkXNXLXPXPXDXW./.h.3.3.#.l.7.Z.t.<.y.Y.F r.",
"o g + + 3.o M i.- / / w yXsXaXsXsXOX4 fXsXaXwX: iXsXaXgX=XSXPXPXPXPXPXcX@X0X5X5XuXhXyX0X,X$XnXLXPXnXI.o.7.i.o.A.^.n.{.(.r.P.u.! ",
"; & ) D z X O h n.9._ H.@XdXsXaXaXiX4  XoX5XyX.XfXaXfX5X4XPXPXPXPXPXkX>XyX$XbXbX-XXX4X4X<XyX,X%XZXbX*.w.!.j.K k V.^.}.E.T Y N b ",
"| 9.J # $ # l %.*.F x D q #XsXfXaXhX X6 tXsX0X.XiXfX5X4XHXPXPXPXPXMX;XhX;XVXPXPXFXu HXPXVX+XuXtX3 0 q ;.Z R g c I F.|.[.L.Q F ] ",
"@.5.{ p.d.#.@.> 2.%.M ` l -.OXtXfXXX:XfXsX>X XXX1XaX$XLXPXPXPXPXLX%XyXfX#XAXPXLXPXAXlXKXPXAX8 .X:X9X6XOXJ.p.( +.I x h.U.P.9.U 7.",
". # T L ] + & L.h.q.6.; 2 G.y r .X<XgXsX7XXXaXsXsXyX4XPXPXPXPXPXMX,XgXfX5XnXu lXPXPXDX0 jXVXOXiXuXuXsXyXr '.'.T.+.9.D.e.D ! d 9.",
"+ & m g Z 1.F ~ :.g.;.+X7X7X-Xr 9 gXaXaX.XpXsXsXsXyX4XGXSXGXPXPX4XiXaXaXfX+X    LXPXPXy   oXaXpXsXsXsXgX@XI.v.d.E.a.M.D.Y.T.t.p.",
"k f m H ! f.x n W i.K.8XsXsXgX5X0XsXaXaX XsXsXaXsXsX9 -X-X-X4XvX3XfXaXaXsXpX6 y LXPXHXBXoXfXpXfXsXsXsXsX+Xx.8.Y.}.e.q.Z.q.Y.Y.G ",
"@ X & # <.c O B - H q #XhXsXsXsXsXsXaXsX X8XaXaXsX:XXXgXfXfXyX,X7 eXfXaXsXgXgX2X$X4X$X9XfXfXfXpXsXpXsXtXr ' 3.9.D.S./.P.M.[.~.g.",
"M R F H - Q b u.E M i.w oX7XwX6XXXsXsXsXwX X<XfXwX6 qXfXaXaXaXfXyXiXfXaXeXXX0XgXuXtXyXfXaXaXfXfXsXsXsXOXJ.d.{ l.d.D./.(.7. .1.E.",
"T i p s & +.s i Q M R R @.-.q 2 5 uXsXsXsXsXaXaXfXiX7 wXfXsXfXsXfXaXaXpX3 ;XaXuXaXfXfXaXiXfXfXgXsXtX6 K.r.X.J p.d.^.8.M.D.Y.w.d.",
"= k i c & m M A - a.*.L p w.M h G.oXaXsXgXfXaXaXaXfXiX XqXeX7X7XiXfXaXfX=X5XfXaXaXaXaXfX1XXX;X<XXXXX9 R.u.i #.v ....!.T.^.g.d.w.",
"g @ Y 2.F b J b :.f.%.c @ c r.3.G 2 8 #X:X5XfXaXaXaXfXiX7 7 :X<X.XeXaXfXqXXXgXaXaXaXaXaXfXiX=X2XiXtX5 5.i.h.L [ g.w.b.!.Y.a.! 1.",
"x i ] N - B { S Q k g *.T.u.M.M 2.N 8.+.; r 0XfXaXaXpXsXpX@X2XhXfXpXaXaXfX=XXXiXfXfXfXfXeXXX:XhXtX8 @.+.! Y.s L.> w.w.c.c.y...X.",
"8.d # @.L.R d k Y s $ <.m M Q n J J 4...r.T.5 0XfXaXsXsXsXsXXXXXiXfXaXaXaXfX2X.XXX;X<X.X.XwXgX2X5 =.N y.!.| L.Q [ 8.| s.N.{ z.D ",
"C z L ; & @.>.F P J #.i @ M H k F } u.q.[ m >.: 7XgXsXsXsXsXsX5X7 wXfXaXaXaXgXfXtX0X0X0X0X1X8 2 +.h !.S.B...#.f C S # m G { 9.o.",
"B z = # m ; K a z k L k 5.m &.b P F 6.Q o m R.:., <XsXsXaXaXsXsXrXXX<XfXaXaXaXfX9X X6 Q.K.J.e.9.d.> i.n L %.^ :.# h K R O ....9.",
"c.S c E m ; % &.g.B % <.R M [ #.5.u.g.h.! H Y f.! 2 oXtXfXaXaXaXfXfXeXfXiXiXfXfXfX<X* f.^.2.l A K 9.! 4.i C m P.j.n.T B ! k z { ",
"%.% + , - U.M } o.e.=.h.-.T.[ Y L i.= %.#.6.! s.w.[ -.8 qXgXaXaXfXpXfXiXfXfXfXqX>XpXr ] [ T d.d.@ O } 9.U *.[ o.3.s.F ( 5.[ k F ",
". = i J 8.t.r.t.S.Z.K ! H [ [ F Z } Z d 2.&.5.R u.- +.-.q <XsXfXpXiXfXfXfXfXfXiX XsX+X#.<.( 5.Y.9.[ ( 5.= u.a.f.G K M U m.N.a.- ",
"@.{ U ] [ B J M.f.F [ 0.J #.Q %.d.0.f 8.~.&.Z b i., % p h ;.9 9XfXfXpXfXiXiXfXfX:XqX2XG.y.D 2.4.^.Y.S c.{ d.*.Y.i.!./.Y.!.t.<.p.",
"M v [ e.9.z + - ] G g ~ *.; :.W @.4.$ :.R.P.u.= > Y.9.l J I.r  XrXiXiXfXfXfXfXfX7X;XyXq 7.5.k r.a.Q 1.A.c.9.M.!.7.c.1.%.[ 7.e.S.",
"k 2.~ > N.' / D <.` b B n P a  ./ m m v h.^.h.g.h.g.! P W r qXfXfXfXfXfXfXiXfXiXiXXXfX8 T.d.q.w.} Y.Z.V./.z.F d.p.*.( | ..~.Y.'.",
"- R =.9.l.5.c.T U U = % #.W %.U.0.Q g.H ! H.u.!.F 5.d.#.: <XgXaXiXfXfXiXiXfXiXfXfX@XaX<XJ.I.] X.6.o.z.e.D.l.( E.I.K 5.w.b.c.8.H ",
"& C a.:.= C i #.Y ! #.= O c z T ].8.G i b o M A Q J r 4 xX3XtXfXiXfXfXiXfXfXiXfXgXXXwX0Xw Q G 8.U.] j.w.V =.Y.S.p.6.D.U.1.w.s.B ",
"B ' 5.o X s.- - a A c C @.U ~ $ f.B R 2.$ b ~ :.Y.K.>X3XPXZX+X0XfXfXfXpXaXaXaXaXgX1X2XfX8 J.T.Y.1.y.c.f ' k. .l.a.{.$.D N U c.}.",
"/ = f T - W 1.# Z g v c.3.# E m A H :.Q W - q.T T r >XMXPXPXAX$X5XfXfXfXaXaXaXaXfX2X;XfXtX1Xr ,.> *.g.l.' '.O.8.s.o.| A.n.[ ( v.",
") 8.f n i n F o.! ! @.f N E > :.G 2.:.! %.~ i p I r 8 HXPXPXPXJXkX-XqXaXfXfXfXfXuX#X7 pXsXsXtXr 8.b.n.[.e.k.l.[.p.%.5.X.8. .X./.",
"* n.K A 7.o.Z C.+ G C d N U.%.! I b E %.s 4.h.i ) d.u PXPXPXPXPXLXZXkX$X<X1X1X<X$X4X: rXsXaXuX,XK.@.C 4.B t.A.I.*./ $.$./ ] ] t.",
"  m v b = 9.C U ] } F <.- p } } J [ *.{ . E !.R >.H.kXPXPXPXPXPXPXPXPXKXZXCXVXAXKXDX4 >X,XeX0XXXr E.p.s.5.J 7.f 8.t.c.c. .k.) ~.",
"c H v r.x k h k x ] j &.z x z v A I ( *.:.4.b C N.I.jXPXPXPXPXPXPXPXPXPXPXPXPXPXPXNX:X;X3 pXsXXX8 e.#.m...z.8./ 8.] A.X.).T.^ ) ",
"k I = } N $./ ( ; = w.D.Z.!.a.5.c i % 5.*.:.R ( J @.W.SXPXPXPXPXPXKXPXPXPXPXPXPXPXkXtXiXXXsXuXXX8 8.b [  .x.,.D { *.c.T.c.E.b.t.",
"k o J [ 3.L | &.$.s.j.9.I.X K R o # - d P.I.R R c j.E.jXPXPXPXPXPXnXVXPXPXPXPXPXMXr :X0X;XhXtX.Xr 1.6.n.o.; s.=. .U. .p.J ' < ;.",
"a %  .0.# M i P 4.( # ! 4.8.#.w.j.h z $.H.J F & p.t.M q NXPXPXPXPXKXjXGXPXPXPXZXMXLXnXXX.X#X.X<XJ.) j.:.4.] /  .I G z f _ l.+.^ ",
"k j c.a.. C E @ O *.M ! h.^./.C.[ w./ 9.a.v K 4.Q + # & t FXPXPXPXPXZXzXPXPXPXPXPXPXPXzX5XtXyXOXI.1.!.>.- I / e.O.A.F ) I 1.8.x.",
"z / D b a V - a.} f s 1.S.~ P.a.w.y.7.8.- +.C R :.L.m :.K.*XPXPXPXPXPXzXDXPXPXPXPXPXPXFXOX5XoX-.U z b B / ( V 1 6.h i j.e.' ).1.",
").X.U [ y.#.o 1 ! f.P T 1.e.m a.W & ; U M J l @.d.%.Q W.MXGXKXPXPXPXPXmXCXPXPXPXPXPXPXZX0 0 w J.8.X.x ..o.d.E.k.f g h S ^ O.O.] ",
"Z.% d H = 1.*.D.W 2.k s ( D m U.a.L d Z 3.G.q u lXu 0 CXPXPXPXPXPXPXFXjXKXPXPXPXPXKXZXjXVXDXZXMXzXw =._ b.{.=.,.v.*.c./ A.; a f ",
"a v N / x X.1.( J f.b k W l ! r.u.:.k M K.lXZXPXPXZXZXPXPXPXPXPXPXVX0 u kXlXnXZXPXMXvXFXPXPXPXPXPXSXjXJ./ t.O.'.[.T.t.c.t.d n ) ",
"p k #.#.7.+ x K V l.2.~ B Y 2.g.~ 2.y.K.MXPXPXPXPXPXPXPXPXPXKXVXlXvXJXPXKXGXZXvXlXGXPXPXPXPXPXPXPXPXKX&X=.O.Z.N.J & * +.; ^ ' V ",
"..Z 1.} Y # o . , H Y Y W s p d C <.K.vXPXPXPXPXPXPXPXPXPXPXDXMXGXPXPXPXPXPXPXPXZXjXGXPXPXPXPXPXPXPXPXMXH.A.x.p.z ^ ^ +.' ^ ' +.",
"@ p h G 3.Z % ` h.w.l k ( V k ] 1.p.t GXPXPXPXPXPXPXPXPXPXPXPXPXPXPXPXPXPXPXPXPXPXVXnXPXPXPXPXPXPXPXPXCXw Z.=. .1.D ) O.S.' m.t.",
"g D # P + C &.p.%.J %.7./ { a b ( p.u PXPXPXPXPXPXPXPXPXPXPXPXPXPXPXPXPXPXPXPXPXPXKXzXPXPXPXPXPXPXPXPXmXG.v.O.| m.*.) z p.Z./ ' ",
"M Y U d + / ( v g K D d.n.6.1.@ d ! t KXPXPXPXPXPXPXPXPXPXPXPXPXPXPXPXPXPXPXPXPXPXKXzXPXPXPXPXPXPXPXHXu +.e.J J ' k.A.@./ G D.b ",
"6.p @ . d . = h n P ( - E g l G f k G.MXPXPXPXPXPXPXPXPXPXPXPXPXPXPXPXPXPXPXPXPXPXCXbXPXPXPXPXPXPXDXu L.h g ( ' ^ =.^ T.t.G <.` ",
"U O i b - + i g + M 4.p k # S X.X.&.Y w MXPXPXPXPXPXPXPXPXPXPXPXPXPXPXPXPXPXPXPXSXjXKXPXPXPXPXSXbXw > h ] l.1.k.< % j j 8. .) D ",
"o . # H C ) g d C % X @ p = + t.A.R u.R.e jXMXHXPXPXPXPXPXPXPXPXPXPXPXPXPXPXDXnXe y zXzXlXlXjXK.R.'.( z l.c.5.n.[.>.j ) $.l.) * ",
"D i O J S T $.h B N % f d g n P.W h 4.P.1.^ q t jXzXmXNXCXZXZXZXCXCXMXnXlXjXW.G.O.=.=.m.;.`.}.m..._ t.l. .v.c.$.X.b.' D z j.x.^ ",
"a a p a Y x <.` I O g x g p # +.X @ s g / 7.@.J x.%.I.J.jXy 0 y jXW.,.: R [ ).|.j R l._ =.+./.8.z x E ).$.1.9.%.x x { < v -.' O."
};
