/* XPM */
static char *_f5cea629e8e4ddc8a790fb3c5cb60d7uw1McehTyP7PVNpe[] = {
/* columns rows colors chars-per-pixel */
"64 64 242 2 ",
"   c #003102",
".  c #3C3C37",
"X  c #443D3B",
"o  c #4B3E3A",
"O  c #533E3A",
"+  c #0F4F0A",
"@  c #0C5C07",
"#  c #234F1C",
"$  c #17690B",
"%  c #11710A",
"&  c #1C740C",
"*  c #157A08",
"=  c #1B7D0B",
"-  c #33680C",
";  c #25780C",
":  c #237E0C",
">  c #296A17",
",  c #277717",
"<  c #247C13",
"1  c #2C7D15",
"2  c #357A1B",
"3  c #344A2B",
"4  c #35572A",
"5  c #3B4736",
"6  c #3C5832",
"7  c #386728",
"8  c #306E28",
"9  c #397A26",
"0  c #427B17",
"q  c #44433D",
"w  c #4A423E",
"e  c #42493B",
"r  c #58403D",
"t  c #455439",
"y  c #69433C",
"u  c #76463C",
"i  c #476838",
"p  c #487933",
"a  c #4B4844",
"s  c #554947",
"d  c #4A5845",
"f  c #57564A",
"g  c #5B5754",
"h  c #6A4A46",
"j  c #6F514B",
"k  c #795249",
"l  c #556F48",
"z  c #65664D",
"x  c #6B6658",
"c  c #767655",
"v  c #77706B",
"b  c #84483E",
"n  c #9B4D3F",
"m  c #AD513F",
"M  c #DC5A3F",
"N  c #8A5248",
"B  c #965D52",
"V  c #AC5141",
"C  c #BB5540",
"Z  c #9A6054",
"A  c #A86556",
"S  c #B56A5A",
"D  c #C75841",
"F  c #D45B41",
"G  c #DC5C41",
"H  c #E45E41",
"J  c #EB5F42",
"K  c #C76E5A",
"L  c #F46142",
"P  c #FF6242",
"I  c #FF694A",
"U  c #F86C4F",
"Y  c #FF765A",
"T  c #CB7461",
"R  c #DA7965",
"E  c #E57D67",
"W  c #FF7F65",
"Q  c #1C830B",
"!  c #198908",
"~  c #1C8C0D",
"^  c #23840C",
"/  c #288609",
"(  c #248C0C",
")  c #2B8C0D",
"_  c #358C0C",
"`  c #28970B",
"'  c #2B930C",
"]  c #32940C",
"[  c #349C0D",
"{  c #3A990B",
"}  c #258413",
"|  c #2B8314",
" . c #2C8B13",
".. c #298918",
"X. c #348D14",
"o. c #378619",
"O. c #338B1C",
"+. c #2B9414",
"@. c #339413",
"#. c #389717",
"$. c #349C13",
"%. c #3B9C14",
"&. c #33931C",
"*. c #3A941C",
"=. c #3C9C1B",
"-. c #2CA20C",
";. c #37A30C",
":. c #3CA314",
">. c #38A517",
",. c #2B8722",
"<. c #378724",
"1. c #379525",
"2. c #3C9424",
"3. c #3C9A22",
"4. c #3DA225",
"5. c #448A1D",
"6. c #4E9C15",
"7. c #469918",
"8. c #429C1C",
"9. c #46A60C",
"0. c #54B20C",
"q. c #43A413",
"w. c #4AAB14",
"e. c #43A31C",
"r. c #4AA31B",
"t. c #46A818",
"y. c #4CAA1D",
"u. c #56AC1A",
"i. c #4BB318",
"p. c #53B31C",
"a. c #58B618",
"s. c #62B716",
"d. c #458A2A",
"f. c #429B22",
"g. c #4B9D24",
"h. c #469628",
"j. c #4B9D2C",
"k. c #569A28",
"l. c #4B8935",
"z. c #55893A",
"x. c #499734",
"c. c #569935",
"v. c #659B3B",
"b. c #44A323",
"n. c #4AA423",
"m. c #4DAB24",
"M. c #47A728",
"N. c #4BA42B",
"B. c #53AD24",
"V. c #57A729",
"C. c #53AB2B",
"Z. c #4EB126",
"A. c #54B224",
"S. c #5BB826",
"D. c #54B32B",
"F. c #5CB42C",
"G. c #4DA635",
"H. c #54A434",
"J. c #53AB33",
"K. c #58A838",
"L. c #4CB231",
"P. c #5DB333",
"I. c #59B636",
"U. c #64B828",
"Y. c #63BB2D",
"T. c #63AC37",
"R. c #63B434",
"E. c #63BB33",
"W. c #6ABC34",
"Q. c #63B43C",
"!. c #68B93B",
"~. c #71B736",
"^. c #65C51B",
"/. c #5EC12E",
"(. c #68C329",
"). c #76C82A",
"_. c #6CC336",
"`. c #76C738",
"'. c #7DD236",
"]. c #609C4A",
"[. c #5DAB45",
"{. c #5BB343",
"}. c #64AC45",
"|. c #66B846",
" X c #6ABD44",
".X c #75BD4E",
"XX c #6BC244",
"oX c #77C647",
"OX c #75CB4A",
"+X c #79C556",
"@X c #7DC763",
"#X c #83D337",
"$X c #89865C",
"%X c #918D5F",
"&X c #938D6D",
"*X c #B0AB6D",
"=X c #ED816A",
"-X c #F3836C",
";X c #FF876E",
":X c #FF886F",
">X c #FF8A70",
",X c #C4BC75",
"<X c #85CE4D",
"1X c #85D24C",
"2X c #84CB58",
"3X c #9AE05E",
"4X c #8AD164",
"5X c #97E071",
"6X c #D2CA7B",
"7X c #D5CD7C",
"8X c #979186",
"9X c #A19B8F",
"0X c #AEA794",
"qX c #BEB8A7",
"wX c #C3BCA4",
"eX c #D7CE87",
"rX c #E4DA82",
"tX c #EAE286",
"yX c #F3EB8A",
"uX c #FFF48E",
"iX c #FFF88E",
"pX c #FFF597",
"aX c #FFFB91",
"sX c #CCC4AC",
"dX c #D7CFB5",
"fX c #D2CBBB",
"gX c #FFF7A9",
"hX c #FEF4B7",
"jX c #DFDACB",
"kX c #EDE5C6",
"lX c #F4EBCA",
"zX c #F9EFCE",
"xX c #FDF3C3",
"cX c #FBF1CF",
"vX c #ECE4D4",
"bX c #F3ECD8",
"nX c #FDF3D1",
"mX c #FFF9D6",
"MX c #FDF7DA",
"NX c #FEF6E3",
"BX c #FFF9E5",
"VX c #FFFDE9",
/* pixels */
"-.+.G.|.3.%.y.3.-.+.J.1.i.i.>.< [ X.|.(.$.b.% , >.XX;.i.$.L.t.(.XX/.a.4X+Xr.1X_.oXU.3.F.k.D.@.[ D.D.4XOX5X'.S.2.@XXX/.I.G.=.<.X.",
", 3.,.4.>.; 2.|.f.*.I.b.>.L.x.X.$.p.U.q.&...1.Z.i.I.$.M.x.<.<.l.<.V.P.2X2XOX_.+X!.W.|.A.F.A.N.Q.XXoXK.1XY.)._.'.4XoXE.B.U.h.}.$.",
"=.&.~ ,.H.q.{ n.d.M.t.:.%.S.A.1 < g.8.` 4.L.I.J.c.p i 6 X w w s s r w e e l l.k.2X`.1X#X`.P.Q.V.@X1X).<XoXS.`.F.2X#X`.!.R.K...@ ",
"X.&.+.Q 3.f.[ M.{.> &., :.M.r.C.@.3.+.m.>.g.7 5 a s B S T E E E E E E T S B h w s ].T.U.~._. Xv.1XoX(.XX`._.F.W.`.p.I.!.oX.XQ.H.",
"= ) @.} =  .: *.*.8.g.f.m.w.O.P.2.{.n.9 6 a h A R ;X>X>X>X;X;X>X:X:X:X>X-XA h X X X X 6 k.u.'.1X1X5XK.E.s.'.OXY.Y.+XY.!.W.+X`.g.",
"-.Z.Z.$.) / ^ 1.r.O.$.*.P.u.X.3.{.K.i X k T >X>X;X>X;X>X;X;X>X;X:X:X:XS o s &XqXdXdXsXv w l T.^.E.(._.P.$.OX(.4.n. XB.U.p.n.W.}.",
"] 7.e. .) ] g.N.<.<.' ..b.7.t.&.p 5 j T >XE S K -X>X;X;X;X;X;X;X:X:XA 5 8XkXcXMXnXnXmXmXsXv . i XX^.U.E.J.G.I.( O.I.r.y.) D.4XK.",
", / *.3.` | 5.e.< E.w. .( ( $.6 a A ;X>XA X d a j E ;X;X;X>X;X;X:XE q 9XmXnXcXzXnXnXnXnXnXzX0Xs t u.p.a. X X!.+.O.S.u.r.9 +X2X2X",
"u.*.; o.>.;.M.} &.N.N.:.=.x.5 h R >X>XE q 9XlXdXd A >X;X;X;X;X;X>XA d lXnXcXnXnXcXnXnXcXcXnXmXdXv e x.b.#X(.D.A.y.J._.w.Y.W.W.T.",
"_ B.7._.f.% O.f.}.R.m. .2 a N =X>X;X>XS a lXmXMXv N >X;X;X;X;X;X>XB v nXnXcXcXnXnXcXcXnXnXnXcXnXvXZ . 7 N.t.oX5X'.oXXXZ.` A.).#X",
"@ 9.m.&.$.A.e.F.f.%.3.8 . B >X>X;X;X>XR q 8XdX9X. S >X;X;X;X;XW :XB g zXnXnXnXcXnXcXnXnXnXcXnXnXmXmX8XX l.e.!.OX^.OXXX` R.N.^.2X",
"> ^ $.*.*.%.< H.f.r.8 . Z >X;X;X;X;X;X;XS o a a A ;XY U I I P P P D X eXgXhXxXcXnXnXnXcXcXnXnXnXcXcXnX9X. 9 , ) [ i.(.D.[.7.7.o.",
"%.~ @.b.] & < * M.x.5 B >X;X;X;X;X;X;X;X;XE K J I P P P P P P P P P y x uXiXiXuXgXhXcXnXnXcXnXnXcXnXnXmX8X5 x.{.@XK.' &.$.H.3.+X",
"Y.*.:.g.8.Z.[ ' | 5 k >X>X>X;X;X;X;X>X;XY I P P P P P P P P P P P P G X $XiXiXyXuXuXpXhXcXnXnXnXcXcXcXnXMXZ 5 I.+Xj.w.t.f.Q.E.W.",
"{.2.V.S.Q | * Q 4 s E >X;X;X>X>X;X;XY I P P P P P P P P P P P P P P P D X $XyXiXuXuXuXiXpXhXcXnXnXnXnXnXnXlXg 6 3.M.%.:.}.2XC.Y.",
"q.C.#.| , +...p w T >X;X>X;XR T E I P P P P P P P P P P P P P P P P P P D O f 6XaXaXuXuXuXuXpXxXcXnXnXnXnXkXg X 9 (.F.4./.|.$.D.",
"$ ( * ; m.= ,.d B :X:X:XS r X X X y G P P P P P P P P P P P P P P P P P P H k 5 z ,XyXaXaXaXiXaXhXMXmXmXsXg h Z e c.@X+XD.}.G.3.",
"2 $ w._ '   # s =X:X-Xj 5 %X6XrX6Xx r H P P P P P P P P P P P P P P P P P P P F u X f c *X6X7XrX7XeX9Xv 5 k =X:Xh l 5X+X>.>.) ..",
"B.P.*.= = & q S :X:Xk s 7XaXaXaXiXyXz u P P P P P P P P P P P P P P P P P P P P P H m u O X q w w q w N K :X;X:XT 5 2X2XG.1.;.t.",
"d.j.r.H.I.7 h -X:XA e 7XaXaXuXuXuXiX*Xw J P P P P P P P P P P P P P P P P P P P P P P P L H G F G H L U ;X:X;X;X>Xh l |.|.C.;.D.",
"@ : 4.8.t.5 Z >X-Xa %XaXuXuXuXuXuXuX6XX H P P P P P P P P P P P P P P P P P P P P P P P P P P P P P P P I :X;X;X>XS w H.*.2.: J.",
"$ > ..~ 2 a E >XK q tXuXuXuXuXuXuXiX,XX J P P P P P P P P P P P P P P P P P P P P P P P P P P P P P P P P Y ;X;X:X-Xs v. XoXF.H.",
"` ( <.&.7 j >X>XA f uXuXuXuXuXuXuXaX%Xy P P P P P P P P P P P P P P P P P P P P P P P P P P P P P P P P P P Y ;X:X:Xk i L.XX X%.",
"! + & Q 5 B >X>XA f uXuXuXuXuXuXaXrXe m P P P P P P P P P P P P P L m m m L P P P P P P P P P P P P P P P P P ;X:X:XS d !.2XXXD.",
"..<.[ O.5 S >X:XD q 7XaXiXuXuXaXyXz y L P P P P P P P P P P P P m O a d a O m P P P P P P P P P P P P D u u m I :X:XR w g.u.n.@X",
"=.Q ! < q R >XY P h z yXaXaXaX7Xg r H P P P P P P P P P P P P m X %XtXuXtX%X. D P P P P P P P P P P V q ].Z e m Y >XE o }.!.B.T.",
"} ` * , q R ;XP P G r d $X%Xc q y H P P P P P P P P P P P P P O $XaXuXuXaXaX$XO L P P P P P P P P P O %XpXaX%Xw L ;XE s }.I.J.C.",
"( % >.N.q T Y P P P L n y y u D P P P P P P P P P P P P P P M q 7XaXuXuXuXaX7Xw F P P P P P P P P L s *XaXaX6Xw J Y E w c.J.3.m.",
";.= w.O.5 S I P P P P P P P P P P P P P P P P P P P P P P P D q tXiXuXuXuXuXtXa F P P P P P P P P P b f 7X7Xz y P I T a T.S.a.u.",
"V.} = d.d N P P P P P P P P P P P P P P P P P P P P P P P P H X ,XaXuXuXuXaX6XX G P P P P P P P P P J y q q y G P P N d Q.r.S.*.",
"O.' *.2 4 w G P P P P P P P P P P P P P P P P P P P P P P P P u z tXaXaXaXyXz y P P P P P P P P P P P P F F L P P J O 7 $.r.D.p.",
"| #.^ = | 3 u L P P P P P P P P P P P P P P P P P P P P P P P H r f *X6X*Xf O H P P P P P P P P P P P P P P P P P b t ,.% a.i.C.",
"R.$.} 1...2 e u L P P P P P P P P P P P P P P P P P P P P P P P H b w w O b H P P P P P P P P P P P P P P P P L b q h.| 3.` ' q.",
"h.; , 8 , |.<.5 y D P P P P P P P P P P P P P P P P P P P P P P P P L H L P P P P P P P P P P P P P P P P L F h e k.>.=.j.e.' $.",
"@ < ~ O.V.C.D.P.l . h D L P P P P P P P P P P P P P P P P P P P P P P P P P P P P P P P P P P P P P P L D k q 6 *.$.,.:.W.!.K.2 ",
"d.r.:.w.e.o.*.|.L.9 i 5 O N C G L P P P P P P P P P P P P P P P P P P P P P P P P P P P P P P L G m b s a 6 <..XG.XX+XXXXXF.e.G.",
"..} 8.A.V.' ; 1 t.:.( 1.7 3 3 q s y b n m m D F F G H H H J J J J J J H H H M M F D C V n N y s w e i v.P.V.E.XXB.Q.N.3.:.D.S.Y.",
"` m.3.<.!.q.7.X.e.q...o.+.;.~ 7.2 4 6 6 d d 5 X q w O w o X o o o w o X q w w q q a 5 3 i i p f.3.|.(.^.+XY.$.K.H.j.7.r.y.oX|.<X",
", <.j.V.E.V.U.4.:.:.& ; 3.1.f.}.A.1.I.&.3.x.p g sXsXsXwXwXwXwXqXqXqXwXwXwXsXsXsXs z.P.(.!.}.t.a.Z.p.Y.a._.S.6..X}.#.V.A.W.R.C.*.",
"> O.J.x.< X.= b.>.4.f.< % } ' 3.OXC.$.Q ` @ 4 x cXcXzXcXzXcXzXcXzXxXcXcXcXcXcXcXx 8 y.E.c.,.=.V.|.q.P.D.5.c. X XG.C.XXI.N.B.P.1 ",
"o.q.j.$ + K.| 1 ~ $.} <.d.$.4.< I. .<.N.< ..4 v zXzXlXlXlXlXlXlXlXlXlXlXlXlXlXzXv 6 /.p.f.Y.T.|.M.S.R./ 6.~.u.S.C.@Xg.*._ :.R.4X",
"{ 1 | >., *.M.&  .( ..F.y.= 1.,.+.O.x.1.1.} 4 8XnXlXlXlXlXlXlXkXlXlXkXlXlXlXlXzX&X6 b.-.Y.>.>.C.9 N.P.U.6.<Xs.k.K.A.w.`.T.e.e.W.",
"r.n.} +.Q ( $.a.b.3.d./ X.<.<.x.%.b.x.2.3.b.5 9XzXlXlXlXlXlXlXlXlXlXlXlXlXlXlXnX0X5 b.J.h.= M.d.6.!.[.+Xu.U.U.4XH.h.N.a.V.u.a.+X",
"- Q.$.&.B.A.+./.% %.O.^ X.{.d.3.>.' 1.1.} h.e sXnXlXlXlXlXlXlXlXlXlXlXlXlXlXlXnXsXe z.XXP.|.V._ u.9 O.M.o.P.).}.j.8.g.g.*.q.w.F.",
"  ..| ( < C.O.%.w.y.%.M.; ! Z.e.#.b.j.t.@ 8 s vXNXMXbXzXzXlXzXvXlXlXzXzXzXbXMXNXvXf 8 +._.A.F.u.*. XK.K.V.3.B.) V.F.P.U.a.U.6.<X",
"2 &.| S.[ [ / ` [ >.' h.] [ ] ..@.;.8.h.x.6 v VXNXNXNXNXNXNXNXNXMXMXNXNXNXBXNXNXVXv 3 >.i.q.] i.;.u.h.!.i.W.k.{ V.w.`.a.#X}.7.0.",
"+.:.= n.X.g.r.*.2 / A.`.(.XXG.N.} Q , C.l.. qXVXNXNXNXNXNXNXNXNXBXNXNXNXNXNXNXNXVXqXa R.t.I.M.; %.y...e.w.T.v._ 7.j.P..XR..XR.F.",
"` $ *.e.N.8.t.b.j.c.P.N.Q.# =.<.$ * 1 ( p g bXVXNXNXNXNXNXNXNXNXNXNXNXNXNXNXNXNXBXbXg > >.G.y.k.k.=.L.Q.A.2 P.k.B.Q.u.H.h.9.0 z.",
"! ^ B.Z.* ..! +.n.=.= 3.M.B.8.D.P.) { h.. 9XVXNXNXNXNXNXNXNXNXNXNXNXNXNXNXNXNXNXBXVX9X5 n., V.u.#Xq.P.x.N.t.e.a.{ ;.' / 0.(.2 6.",
"( _ E.C.@ O.2.* % j. .3.Q.+X+X/.e.B.*.l.s vXNXNXNXNXNXNXNXNXNXNXNXNXNXNXNXNXNXNXNXBXvXs l.g.+X_.U.h.XXH., [ 7.V.s.).[ q.9.b.T.}.",
"] _ #.( ( O.; F.m.} Q N._.M.K.J.D.S.B.t 8XVXNXNXNXNXNXNXNXNXNXNXNXNXNXNXNXNXNXNXNXNXVX8Xe }.E.F.$.` ( o.7.7.5.d.N.) Q P.u.u.#Xr.",
"#Xa.q.e.S.3.$ p 3.L.-.>.b.F...J.O., 7 q fXNXNXNXNXNXNXNXNXNXNXNXNXNXNXNXNXNXNXNXNXNXBXfXq 9 < e.a.u.{ p.B.[..XT.^ / ) @.{ s.a.w.",
").< Q &.< n.j.oX2.L.+.~ f.*.1 |.J.$.8 s vXNXNXNXNXNXNXNXNXNXNXNXNXNXNXNXNXNXNXNXNXNXBXvXf d.5.$ 9.X.a.0.!.2Xk.k.E.h.Q.{ )._ ! / ",
"` }  .6.{ a.N.=.5.D.~ +.3.' 3.L.G.j.| a vXVXNXNXNXNXNXNXNXNXNXNXNXNXNXNXNXNXNXNXNXNXVXvXa l.1Xj.f.N.9.k.r.C.s.oX2X.XU.U.T./ +.q.",
"! ` h.b.m.& [ %.o.S.M.>.o.>.y.I.b.Z.D.t v jXVXVXVXNXNXBXBXBXBXNXNXVXNXNXNXNXVXVXVXBXjXv 5 < ..3.d.F.7.U.7.s.^.oX*.> 2 d.2 5.6.o.",
"i.( M.e.:.= $ @ 9 &.>.>.1.Q ! } ,.N.V.9 5 a v 9XqXjXjXjXvXvXbXbXvXbXvXvXjXjXjXqX9Xv a 6 c.* / [ N.!.p.C._._.v.K.] 6.5.d.9.6.u.o.",
"* Q / q.m.' : q.I.A.( -.=.o.[ q.g.H.n.( } # i 3 5 5 a a s s f s g s s s a w q . 5 7 c.N.' ' 7.o.(. X8.B..XU.6.u.g.%.;.^._.r.W.C.",
") %.= -.* <.f.H.f.&.h.B.7.r.~ ( q.j...( * [.J.m.7.r.u.d.<.2 9 l.i c.2 o.<.T.~.< h.X.|.H.< XX2Xu.w.t.~.F.G.W.U.y.~.c.9.{ K.Y.7.w.",
"..>.:.Q > { f.X.} &.#.Q.}.Z.M.% : 3.F.1.X.*.|  XR.] <.| e.-.< d.< b.t.s.d.X.oXB.V.d.g.5.B.J.D.).Z.[ u.N.X.R.*.=.6.T.).0 7.%.`. .",
"M.~ * @ } @ < ) X.-.7., 1./ ' :./ ` 4.$.! q.c.C. . .q.n.1 I.g.$ K.<.'  XN.& 8.W.~.U.U.g.6.r.m.4.%.{ 2.I. .( #.6.6.g.5.oXP.%.e.q.",
":.% Q ( 1 & Q ( & O.M.Q ` & @.a.a.h.` n.t.N.A.x.>.9.B.U.e.1._ 1 O.D.=.N.P.1 q.g.r.M.{ o.V.v.k.k.c.X.1  .w.Y.n.~.2 ; _ _ V.m.9._ ",
"$ @ Q O.X.q.~ < &.& + Q ! ; & S.).<.G.{.d.n.d.o._ u.#.* _ f.=.( 7.M.2 !.Y.h.7.%.r.) 7.V.Y..XT.~.<X#X8.] U.R.N.Q.2Xc._ 9.6.Y.q.- ",
"#.Q % *.$.:.g.' O.| ; / ! ^ ..[.O.' N.{.N.{ :.7.1 g.5.w.' B.g.U.7.}.[.d.f.j.E.+.0.6.r.#Xk.oX4X~.w.a.F.Y.u.E.Q.g.s.W.r.{ ] R.T.g.",
"~ ! Q ~ :.{ b.:.{ % ( { / ! = g.+ Q ( ( 5.F.d.o.Y.9.R.`.#XB.%.5./ & 9.$ ) ;.'.3X] <.U.0.k.l.2XB.' [ <.#Xg.n.C.h.{ [ r.0 | d.r.s."
};
